<mxfile host="app.diagrams.net" modified="2022-11-06T08:07:50.969Z" agent="5.0 (Windows NT 10.0; Win64; x64) AppleWebKit/537.36 (KHTML, like Gecko) Chrome/107.0.0.0 Safari/537.36" etag="Ty2BW0MTYPRPIl2YyPGf" version="20.5.2" type="github">
  <diagram id="dLIDzFORcK-nbgymP7zs" name="第 1 页">
    <mxGraphModel dx="1038" dy="547" grid="1" gridSize="10" guides="1" tooltips="1" connect="1" arrows="1" fold="1" page="1" pageScale="1" pageWidth="827" pageHeight="1169" math="0" shadow="0">
      <root>
        <mxCell id="0" />
        <mxCell id="1" parent="0" />
        <mxCell id="Ox3Pp3CJMvX5oDVqFDjd-3" value="" style="edgeStyle=orthogonalEdgeStyle;rounded=0;orthogonalLoop=1;jettySize=auto;html=1;" edge="1" parent="1" source="Ox3Pp3CJMvX5oDVqFDjd-1" target="Ox3Pp3CJMvX5oDVqFDjd-2">
          <mxGeometry relative="1" as="geometry" />
        </mxCell>
        <mxCell id="Ox3Pp3CJMvX5oDVqFDjd-1" value="AbstractAutowireCapableBeanFactory.doCreateBean&lt;br&gt;----&amp;gt;createBeanInstance" style="rounded=1;whiteSpace=wrap;html=1;" vertex="1" parent="1">
          <mxGeometry x="110" y="50" width="350" height="60" as="geometry" />
        </mxCell>
        <mxCell id="Ox3Pp3CJMvX5oDVqFDjd-2" value="Supplier&amp;lt;?&amp;gt; instanceSupplier = mbd.getInstanceSupplier()&lt;br&gt;判断是否有实现Supplier，如果有的话就直接返回了" style="rounded=1;whiteSpace=wrap;html=1;" vertex="1" parent="1">
          <mxGeometry x="110" y="170" width="350" height="60" as="geometry" />
        </mxCell>
        <mxCell id="Ox3Pp3CJMvX5oDVqFDjd-9" value="" style="edgeStyle=orthogonalEdgeStyle;rounded=0;orthogonalLoop=1;jettySize=auto;html=1;" edge="1" parent="1" source="Ox3Pp3CJMvX5oDVqFDjd-4" target="Ox3Pp3CJMvX5oDVqFDjd-7">
          <mxGeometry relative="1" as="geometry" />
        </mxCell>
        <mxCell id="Ox3Pp3CJMvX5oDVqFDjd-10" value="" style="edgeStyle=orthogonalEdgeStyle;rounded=0;orthogonalLoop=1;jettySize=auto;html=1;" edge="1" parent="1" source="Ox3Pp3CJMvX5oDVqFDjd-4" target="Ox3Pp3CJMvX5oDVqFDjd-7">
          <mxGeometry relative="1" as="geometry" />
        </mxCell>
        <mxCell id="Ox3Pp3CJMvX5oDVqFDjd-12" value="" style="edgeStyle=orthogonalEdgeStyle;rounded=0;orthogonalLoop=1;jettySize=auto;html=1;entryX=0.557;entryY=-0.007;entryDx=0;entryDy=0;entryPerimeter=0;" edge="1" parent="1" source="Ox3Pp3CJMvX5oDVqFDjd-4" target="Ox3Pp3CJMvX5oDVqFDjd-8">
          <mxGeometry relative="1" as="geometry">
            <mxPoint x="1040" y="80" as="targetPoint" />
          </mxGeometry>
        </mxCell>
        <mxCell id="Ox3Pp3CJMvX5oDVqFDjd-4" value="instantiateUsingFactoryMethod" style="rounded=1;whiteSpace=wrap;html=1;" vertex="1" parent="1">
          <mxGeometry x="720" y="50" width="200" height="60" as="geometry" />
        </mxCell>
        <mxCell id="Ox3Pp3CJMvX5oDVqFDjd-5" value="处理@Bean" style="text;html=1;align=center;verticalAlign=middle;resizable=0;points=[];autosize=1;strokeColor=none;fillColor=none;" vertex="1" parent="1">
          <mxGeometry x="770" y="15" width="90" height="30" as="geometry" />
        </mxCell>
        <mxCell id="Ox3Pp3CJMvX5oDVqFDjd-6" value="mbd.resolvedConstructorOrFactoryMethod缓存推断后的构造方法&lt;br&gt;mbd.constructorArgumentsResolved缓存推断后的构造方法参数" style="shape=note;whiteSpace=wrap;html=1;backgroundOutline=1;darkOpacity=0.05;" vertex="1" parent="1">
          <mxGeometry x="1660" y="40" width="250" height="100" as="geometry" />
        </mxCell>
        <mxCell id="Ox3Pp3CJMvX5oDVqFDjd-7" value="factoryBeanName不为空，即不是static方法&lt;br&gt;1、factoryBean = this.beanFactory.getBean(factoryBeanName);&lt;br&gt;&lt;div&gt;factoryClass = factoryBean.getClass();&lt;/div&gt;&lt;div&gt;&lt;span style=&quot;&quot;&gt;			&lt;/span&gt;isStatic = false;&lt;/div&gt;" style="rounded=1;whiteSpace=wrap;html=1;" vertex="1" parent="1">
          <mxGeometry x="550" y="170" width="250" height="90" as="geometry" />
        </mxCell>
        <mxCell id="Ox3Pp3CJMvX5oDVqFDjd-8" value="factoryBeanName为空，即是static方法&lt;br&gt;&lt;div&gt;factoryBean = null;&lt;/div&gt;&lt;div&gt;&lt;span style=&quot;&quot;&gt;			&lt;/span&gt;factoryClass = mbd.getBeanClass();&lt;/div&gt;&lt;div&gt;&lt;span style=&quot;&quot;&gt;			&lt;/span&gt;isStatic = true;&lt;/div&gt;" style="rounded=1;whiteSpace=wrap;html=1;" vertex="1" parent="1">
          <mxGeometry x="870" y="170" width="250" height="90" as="geometry" />
        </mxCell>
        <mxCell id="Ox3Pp3CJMvX5oDVqFDjd-13" value="在由@Bean生成的BeanDefinition中，有一个重要的属性isFactoryMethodUnique，&lt;br&gt;表示factoryMethod是不是唯一的，在普通情况下@Bean生成的BeanDefinition的isFactoryMethodUnique为true，&lt;br&gt;但是如果出现了方法重载，就为true。后续流程会进行推断，跟下面步骤类似" style="text;html=1;align=center;verticalAlign=middle;resizable=0;points=[];autosize=1;strokeColor=none;fillColor=none;" vertex="1" parent="1">
          <mxGeometry x="500" y="310" width="620" height="60" as="geometry" />
        </mxCell>
        <mxCell id="Ox3Pp3CJMvX5oDVqFDjd-18" value="" style="edgeStyle=orthogonalEdgeStyle;rounded=0;orthogonalLoop=1;jettySize=auto;html=1;" edge="1" parent="1" source="Ox3Pp3CJMvX5oDVqFDjd-14" target="Ox3Pp3CJMvX5oDVqFDjd-17">
          <mxGeometry relative="1" as="geometry" />
        </mxCell>
        <mxCell id="Ox3Pp3CJMvX5oDVqFDjd-14" value="如果getBean时传入了参数值，则直接根据传入的参数值调用有参或无参构造方法实例化" style="rounded=1;whiteSpace=wrap;html=1;" vertex="1" parent="1">
          <mxGeometry x="1370" y="30" width="220" height="60" as="geometry" />
        </mxCell>
        <mxCell id="Ox3Pp3CJMvX5oDVqFDjd-15" value="" style="shape=flexArrow;endArrow=classic;html=1;rounded=0;dashed=1;" edge="1" parent="1">
          <mxGeometry width="50" height="50" relative="1" as="geometry">
            <mxPoint x="520" y="70" as="sourcePoint" />
            <mxPoint x="660" y="70" as="targetPoint" />
          </mxGeometry>
        </mxCell>
        <mxCell id="Ox3Pp3CJMvX5oDVqFDjd-16" value="" style="shape=flexArrow;endArrow=classic;html=1;rounded=0;dashed=1;" edge="1" parent="1">
          <mxGeometry width="50" height="50" relative="1" as="geometry">
            <mxPoint x="1120" y="59.5" as="sourcePoint" />
            <mxPoint x="1260" y="59.5" as="targetPoint" />
          </mxGeometry>
        </mxCell>
        <mxCell id="Ox3Pp3CJMvX5oDVqFDjd-20" value="" style="edgeStyle=orthogonalEdgeStyle;rounded=0;orthogonalLoop=1;jettySize=auto;html=1;fontColor=#FF3333;" edge="1" parent="1" source="Ox3Pp3CJMvX5oDVqFDjd-17" target="Ox3Pp3CJMvX5oDVqFDjd-19">
          <mxGeometry relative="1" as="geometry" />
        </mxCell>
        <mxCell id="Ox3Pp3CJMvX5oDVqFDjd-17" value="determineConstructorsFromBeanPostProcessors&lt;br&gt;获取符合条件的构造方法，返回构造列表&lt;br&gt;机制：&lt;font color=&quot;#ff3333&quot;&gt;SmartInstantiationAwareBeanPostProcessor.determineCandidateConstructors&lt;/font&gt;" style="rounded=1;whiteSpace=wrap;html=1;" vertex="1" parent="1">
          <mxGeometry x="1257.5" y="160" width="445" height="80" as="geometry" />
        </mxCell>
        <mxCell id="Ox3Pp3CJMvX5oDVqFDjd-38" value="" style="edgeStyle=orthogonalEdgeStyle;rounded=0;orthogonalLoop=1;jettySize=auto;html=1;fontColor=#000000;" edge="1" parent="1" source="Ox3Pp3CJMvX5oDVqFDjd-19" target="Ox3Pp3CJMvX5oDVqFDjd-24">
          <mxGeometry relative="1" as="geometry" />
        </mxCell>
        <mxCell id="Ox3Pp3CJMvX5oDVqFDjd-40" value="" style="edgeStyle=orthogonalEdgeStyle;rounded=0;orthogonalLoop=1;jettySize=auto;html=1;fontColor=#000000;entryX=0.55;entryY=-0.037;entryDx=0;entryDy=0;entryPerimeter=0;" edge="1" parent="1" source="Ox3Pp3CJMvX5oDVqFDjd-19" target="Ox3Pp3CJMvX5oDVqFDjd-25">
          <mxGeometry relative="1" as="geometry">
            <mxPoint x="1742.5" y="320" as="targetPoint" />
          </mxGeometry>
        </mxCell>
        <mxCell id="Ox3Pp3CJMvX5oDVqFDjd-19" value="autowireConstructor" style="rounded=1;whiteSpace=wrap;html=1;" vertex="1" parent="1">
          <mxGeometry x="1358.75" y="290" width="242.5" height="60" as="geometry" />
        </mxCell>
        <mxCell id="Ox3Pp3CJMvX5oDVqFDjd-21" value="&lt;font color=&quot;#000000&quot;&gt;1、会处理lookUp注解&lt;br&gt;2、推断，拿到所有的构造方法，循环处理&lt;br&gt;&lt;/font&gt;" style="shape=note;whiteSpace=wrap;html=1;backgroundOutline=1;darkOpacity=0.05;fontColor=#FF3333;" vertex="1" parent="1">
          <mxGeometry x="1730" y="170" width="160" height="80" as="geometry" />
        </mxCell>
        <mxCell id="Ox3Pp3CJMvX5oDVqFDjd-22" value="" style="shape=image;verticalLabelPosition=bottom;labelBackgroundColor=default;verticalAlign=top;aspect=fixed;imageAspect=0;image=data:image/png,iVBORw0KGgoAAAANSUhEUgAABwwAAAIGCAYAAABJSnsrAAAAAXNSR0IArs4c6QAAAARnQU1BAACxjwv8YQUAAAAJcEhZcwAAEnQAABJ0Ad5mH3gAALwbSURBVHhe7N0NvF1Vfef/ec1/nv3bmXZ0/q2ddjr0YVrb2tJ2lE4pdobqqLWDrZViKhVLWykthelo6diJHRMMGhSNoqAiaTWkIggEAgaQh3DJAwkkJIQQCDfh5hISkpCHm3tuglLXf6+11z5nPfzW3vuce+695+GzXq/3i3DO2muvvffa+9y7vnfv849OnDihAAAAAAAAAAAAAAwnAkMAAAAAAAAAAABgiBEYAgAAAAAAAAAAAEOMwBAAAAAAAAAAAAAYYgSGAAAAAAAAAAAAwBAjMAQAAAAAAAAAAACGGIEhAAAAAAAAAAAAMMQIDAEAAAAAAAAAAIAhRmAIAAAAAAAAAAAADDECQwAAAAAAAAAAAGCIERgCAAAAAAAAAAAAQ4zAEAAAAAAAAAAAABhiBIYAAAAAAAAAAADAECMwBAAAAAAAAAAAAIYYgSEAAAAAAAAAAAAwxAgMAQAAAAAAAAAAgCFGYAgAAAAAAAAAAAAMMQJDAAAAAAAAAAAAYIgRGAIAAAAAAAAAAABDjMAQAAAAAAAAAAAAGGIEhgAAAAAAAAAAAMAQIzAEAAAAAAAAAAAAhhiBIQAAAAAAAAAAADDECAwBAAAAAAAAAACAIUZgCAAAAAAAAAAAAAwxAkMAAAAAAAAAAABgiBEYAgAAAAAAAAAAAEOMwBAAAAAAAAAAAAAYYgSGAAAAAAAAAAAAwBAjMAQAAAAAAAAAAACGGIEhAAAAAAAAAAAAMMQIDAEAAAAAAAAAAIAhRmAIAAAAAAAAAAAADDECQwAAAAAAAAAAAGCIERgCAAAAAAAAAAAAQ4zAEAAAAAAAAAAAABhiBIYAAAAAAAAAAADAECMwBAAAAAAAAAAAAIYYgSEAAAAAAAAAAAAwxAgMAQAAAAAAAAAAgCFGYAgAAAAAAAAAAAAMMQJDAAAAAAAAAAAAYIgRGAIAAAAAAAAAAABDjMAQAAAAAAAAAAAAGGIEhgAAAAAAAAAAAMAQIzAEAAAAAAAAAAAAhhiBIQAAAAAAAAAAADDECAwBAAAAAAAAAACAIUZgCAAAAAAAAAAAAAwxAkMAAAAAAAAAAABgiBEYAgAAAAAAAAAAAEOMwBAAAAAAAAAAAAAYYgSGAAAAAAAAAAAAwBAjMAQAAAAAAAAAAACGGIEhAAAAAAAAAAAAMMQIDAEAAAAAAAAAAIAhRmAIAAAAAAAAAAAADDECQwAAAAAAAAAAAGCIERgCAAAAAAAAAAAAQ4zAEAAAAAAAAAAAABhiBIYAAAAAAAAAAADAECMwBAAAAAAAAAAAAIYYgSEAAAAAAAAAAAAwxAgMAQAAAAAAAAAAgCFGYAgAAAAAAAAAAAAMMQJDAAAAAAAAAAAAYIgRGAIAAAAAAAAAAABDjMAQAAAAAAAAAAAAGGIEhgAAAAAAAAAAAMAQIzAEAAAAAAAAAAAAhhiBIQAAAAAAAAAAADDECAwBAAAAAAAAAACAIUZgCAAAAAAAAAAAAAwxAkMAAAAAAAAAAABgiBEYAgAAAAAAAAAAAEOMwBAAAAAAAAAAAAAYYgSGAAAAAAAAAAAAwBAjMAQAAAAAAAAAAACGGIEhAAAAAAAAAAAAMMQIDAEAAAAAAAAAAIAhRmAIAAAAAAAAAAAADDECQwAAAAAAAAAAAGCIERgCAAAAAAAAAAAAQ4zAEAAAAAAAAAAAABhiBIYAAAAAAAAAAADAECMwBAAAAAAAAAAAAIYYgSEAAAAAAAAAAAAwxAgMAQAAAAAAAAAAgCFGYAgAAAAAAAAAAAAMMQJDAAAAAAAAAAAAYIgRGAIAAAAAAAAAAABDjMAQAAAAAAAAAAAAGGIEhgAAAAAAAAAAAMAQIzAEAAAAAAAAAAAAhhiBIQAAAAAAAAAAADDECAwBAAAAAAAAAACAIUZgCAAAAAAAAAAAAAwxAkMAAAAAAAAAAABgiBEYAgAAAAAAAAAAAEOMwBAAAAAAAAAAAAAYYgSGAAAAAAAAAAAAwBAjMAQAAAAAAAAAAACGGIEhAAAAAAAAAAAAMMQIDAEAAAAAAAAAAIAhRmAIAAAAAAAAAAAADDECQwAAAAAAAAAAAGCIERgCAAAAAAAAAAAAQ4zAEAAAAAAAAAAAABhiBIYAAAAAAAAAAADAECMwBAAAAAAAAAAAAIYYgSEAAAAAAAAAAAAwxAgMAQAAAAAAAAAAgCFGYAgAAAAAAAAAAAAMMQJDAAAAAAAAAAAAYIgRGAIAAAAAAAAAAABDjMAQAAAAAABgaKxTi15xilo0Ir0HAACAYUVgCAAAAAAAet/IAvXKVyxQI9J7NY1df17WxvTCsryN89SyUfl9z+gydY7Q55GFp6hXLlznvRbRy4Z1THvFusfVsnmdbYtZ/7xlakx4r6W6fbMvKtvBYNHjou55mIfT+pyb7rk7o8y1xRnr5jw7RZ1z/XhcFwCAAUZgCAAAAAAAelweXk1nAr8bYWERJJgApCrw06TAUHpNFG+zH9B1HhjmQU5V6DmerS8PUlLbSmA4nKLjbgO3mDTG8nEr1y8xk+OMwBAAAIPAEAAAAAAA9JAOAwVDDsGKsLBcVYBm75Yy4VnNx3pG4WD1tnkhhVm+6Jd7t1Za0SdzF6Hwfh3ednl98BEYDqsgzNaBW+1x0H7QPePjjMAQAACDwBAAAAAAAPSwPCjrdPK+6vGbRZhYHmDYoM9tx4QMiZBRvONqgVpWEXzovobb2XzNtBmHj3WDl26ELvVCyB5+9CS6xw0J3X9XIjAEAKBXERgCAAAAAICelYdUHYRQdtLf3BGo/x0GDsX7lUGEvbNPqmeChpI7E92Qz6yvtR1mu7xHfQZ3bVWa2cCwTv0ZD3LQH2zgVqY1roNxW7JsUScaZ82AL2+ruUwwFs1ywvlpzj2xPfv/BIYAgCFFYAgAAAAAAHpSPuHvBAIl/OAsfmRoKyQoHu1ZEvQV3NDRvlYZNjjysFMLAk/Tbrh+J0gp1quZdQXBSCl5u6J+VxjL+lC1nwgMh407Dp1xoc+B5DgIz0UhMIyW9eukAkOvD8K5SmAIAEB7CAwBAAAAAEDvkUIBURwOipohXFV7uSKsDNuVgzcbQnp3DGavzTsvW+cCNRKEIqYNr64WBCmaGKZ0phVepkn7UO5rjsBwWOnxHgeGI3o8hGMlGsPdCwzDQC8f461wnsAQAID2EBgCAAAAAIDeYibw9US/DeJqkMKuZpCnOQFBEQamgrAoUKj5Xt5uHliMXb9ALRvRwUP+/yMLbXBhwgj97zAgnMnAMG87tb11QtfmPqsjuR4MBiEwzI55867U5piVxlX3AsNwvLrnX+v/CQwBAKiLwBAAAAAAAPQOM1lfTPoHwYQoDiVa4VYrPHDrNoOtUI1wriwwbNLboOt425LTyzeDCO/96sCwKrRLBhxVAYh5X97PUVhTMCFL1bHBYPLPSzNGmiGxDaeLcRmFxzMdGAb9EsYogSEAADICQwAAAAAA0KM6CwwlJiRItZUIICS1AsOsPdNWGBia9cQBYt5ezcAwsW4viAykgpOmZGCY9yluN9/nBCrDyj0vhXFrX5PPqaC+PfckRR0CQwAAZgeBIQAAAAAA6FF5MOWGCClxMKH5wYUOEMIQoDRIFNQKDAtBYJivS7ZoRAhHuxEY2vCj9DGhJjDxg8zW64nAxW0v6CcGnTNWw1C8GG/ZeDDfaZj92x+XQmAYjR2/TqeBoTx+7TWhrD0CQwDAkCIwBAAAAAAAPUoI0SJ5qCiHB+HrTl0bEpQGaYLpBIblagaGus8JccCRb68YBrrMvojrRMFgJu+DX3dsdLy9/YI+1xqrrTFSjDV/HBZjtvVaEBjWYNroJDAs+iSdQ2XtERgCAIYUgSEAAAAAAOhRQogWqVPHUQSFtYM834wFhlFoV9wd2XotCk4cul9+wFEEOFXrt+uJgtN8eTeUMdsetNcMYAptBrDoN8W41GNDjxE9HuxYSx17b2zPZmCYKe54tPQ5Ep3DBIYAABgEhgAAAAAAoEclwsAgBKgK8LxQa5qBVtcCw2Zw2dIKQGwok60nf6xjG4GokQoBM+G+M+I+5vvMfb0IIENO32zb7YRB6CdFWNgKCdsP1VqBY1vqnnMAAKBjBIYAAAAAAGDA+OFWN+8Uaisw7JQO3tx1iCFfSrvhIlDfyEI3RG4v/MvPw3yZad1hCAAAZgSBIQAAAAAAAAAAADDECAwBAAAAAAAAAACAIUZgCAAAAAAAAAAAAAwxAkMAAAAAAAAAAABgiBEYAgAAAAAAAAAAAEOMwBAAAAAAAAAAAAAYYgSGAAAAAAAAAAAAwBAjMAQAAAAAAAAAAACGGIEhAAAAAACYlkOTJ9Tdz02pr++eUl/cOaUWb59Sf72lof70kYb6vXUN9RsPNtQb7wdiP3pnQ/3jmyan7UfvBLpDGl+dmJiSr5cAAPQqAkMAAAAAAFBbY+qEenDflPr0k1Pq99c31M/e1Z3ABwAGCYEhAKDfEBgCAAAAAIBSOiRc+syUetuDDfWq2+TJcQBAC4EhAKDfEBgCAAAAAADR9hdPqP/7+JT66WncRfi9KybN8tLjKIFuPZJUO+VOYPqksdUJAkMAQL8hMAQAAAAAAJ5vjk+p9z3cUP/vLfJEuOvVt02q3xxpqPdvbKiPPD6lrt05pe7Mlt9y8IQ6eFxuHwAAAEBvITAEAAAAAADGEy+eUO9ZX33H1w+unFR/8HDDBINSOwAAAAD6C4EhAAAAAABQn3tqSv37lXJAqP3HOybVH21oqJvHCAkBAACAQUNgCAAAAADAEHv0wJT6nTXpuwr1o0lvJSQEAAAABhqBIQAAAAAAQ+qT26fUq26Tg8Jfu7+hbiEoBAAAAIYCgSEAAAAAAENo/hb5rsL/cMekuvJJgkIAAABgmBAYAgAAAAAwZFJh4Z8/2lCjR+RlAAAAAAwuAkMAAAAAAIbI766Nw8LfHGmob+3lrkIAAABgWBEYAgAAAAAwJN54fxwW/tkjDbEuAAAAgOFBYAgAAAAAwBCQwkL9aFKpLgAAAIDhQmAIAAAAAMCAIywEAAAAUIbAEAAAAACAAUZYCAAAAKAKgSEAAAAAAAPqN0cICwEAAABUIzAEAAAAAGAA/c9NhIUAAAAA6iEwBAAAAABgwFz11BRhIQAAAIDaCAwBAAAAABggq56Lw8K3rCYsBAAAAIbJZGNKTRxvqKMT2mQlAkMAAAAAAAbEM0dOqJ9c5YeFP/bNSbEuAAAAgMFz7HhDHTpy3Dh2fEodb5yshcAQAAAAAIAB8Y6H/O8tfMUtk2rbIbkuAAAAgMGh7yjUIeGRiSn17e+8rNotBIYAAAAAAAyAv97ih4Xal3dOiXUBAAAADA4dFh44PKGmTn7bxn/tFwJDAAAAAAD63PW74u8tXPg4YSEAAAAw6KamTqiDh4+rEy99x0Z/nRUCQwAAAAAA+thjB0+oH77DDwvPXd8Q6wIAAAAYLIePTZrvIJxuITAEAAAAAKCPvfVB/1Gkv3BPQ40fk+sCAAAAGBz6UaT67sJuFAJDAAAAAAD61Ac2+2HhP795Ut31HI8iBQAAAIbBkYnu3F2oC4EhAAAAAAB96Lpn4u8tvPJJwkIAAABgWBw6clx9+zsv28hveoXAEAAAAACAPrPhhSn1/bf7YeEfbuB7CwEAAIBhcuDwhPrud79rI7/pFQJDAAAAAAD6zJse8B9F+sv3NtTB43JdAAAAAIPphRcnbNw3/UJgCAAAAABAH/mfm/yw8HtunVQPPM+jSAEAAIBhQ2AIAAAAAMAQkr638HNPERYCAAAAw4jAEAAAAACAISN9b+GFj/C9hQAAAMCwIjAEAAAAAGDIhN9b+Mb7G+pYQ64LAAAAYPARGAIAACA2skC98hWnqEUjwntAP9Nje94yNSa915fWqUXZuXrO9ePxe6PL1Dmp9yR63yxcJ7/nsu1O6/rQjTbQsfB7C19126Rau59HkQKdya/DXM+AXjOuls1r4+cgAACBIQAAQF+pO6E/TSMLT1GvfMUCNSK8V8fY9ecNWCiDkDnG7YRRXZVPzoZjVI/bqv6MZeeQDqrqj898sqmr49kG8sm+Vr3vSQeG+TE6Ty0b9V9PKY5pPOkdrKOLgWE71xndv1r7hDCy1Gd3xN9b+KWdhIXt65GQyI73eteLgLnWdP5Z39FkvOmvfF2q9bODWT7us/m5pernI71sWMfrT749nRxTs/7Kz4nq9mvtAwwYPS7qnofFzz/tfX62RxinifPOp/sWn9v1xrS0D/J+FNcX004HvwOZ5Wrsq8r2S65dADBICAwBAAD6Rv6Lc2qSIP+FuHhfUPuXbDsZ0cEv5YV6kwNV3EmRztWZyMwDUkEn22DDnnaCmn5UjLeOJqmnrRgb7nngjJeqsdtOIGfrihO8zWOdFq+j+vyqN/FcyNvrZD2S/Fzwry/5sXbGs5k060JQ0s5xaOf4dqt/A2jFnjgsvGTTkHxvoR0X7vlZpmpcdudzbrrKfy4o50/Gt6917RkbtW3oc7pin5j9Jp7DeX8qz1spuJBeE8Xb7B/Hmn0Q6f1R9bmf7avr7edG4jrWG+MKsy067smfL6Qx5l4H2pAcZ8J5UOsck86BOudFLtoHZp2tZdPXjir1zuuxbH35zxmJ7Qz6AwCDisAQAACg3zQnEfxfWs0v0uIvuXYiIfwlu0bYUVc44Vg14ZX3VW5r+hNl7sRJ+S/2zaAwsc5mP9vokxs+dj4RKyv6QxBShEfxePeOmZncaR2Petw25Um46Lja9cSTa+5rRZ9ldevFYzGvH/YpGYKHEu21rhfyPkgptqP0HG+Tu19rnZPS8YDafPBEFBb+5siQhIWaGRdVE945ff5EoZIzJtvR7c8Blxvwm38nJ9PbO4998edovj+E6+/ouNcn973ivIzaL87l1Pvh+qPjWL1t3jEwyxdtVlxvreJaUvu6KvCuR14ffGbfll3fMKDycdwcqzXC95Z82XY+88rHmdBedN7l54O/Tn0++eO68pzxrln+Pqh1vtnlu3eNDo6Dq+S8BYBBQmAIAADQj/QvrQuzX/SdX1pTE3jFL7/piUSH+WW4Zt1QjQCy+AU81VczOTCtiTJ38k/aFwW7T2r94l/ULWvPau6/BXk/ujzpV0yetDMpNJiK4ywfEz2+9GPnUvs+H3/Vxz4ap2aMC8tJr9ux0DpWeZ+jSaignlmneP7ZbTbvFWNSoMdctG5Z6nwz+y973Wx3rW2ryS4nTsS1w0ykZscl61N+jIJ9UKaTa9sAODx5Qv2bW/2w8D9/q6H2HJXrDyQz/mpcxzP63Cgbp9P/rJq++DqWuMaI2qnrKrn2RKTrRrD/zbmc70e9T6NrilnGtmOuReE6Fqhlej+UHAvpWDZfM226fcq3r+61zRyDaY4DM5ai7QrVG7foc8754P27UnvjVovHrr4mFOes0J53/trrQLb8iL672H62+2M2a8vcTZseu6YP4Wdyc7vza5TbB7F+SnRud8C0EW5XrJ39DgD9gMAQAACgX5ROdpZN/tlf7Ct/ybb1wkm+DuQTmW5f/f7F7+emNQnrTlhUtJFP0LWzna3JkbJ28+3KJw+KScBuTiTMRJv9KR9PnU4G5cep4vibiSK3TuocS4yNusvbcWuOqfl3ql92m8Pz2C7fajdRT1B9viWuHW6f3der2Mm3GR+/nfZvgP3EN/2wUHvkwJB9b6EZF/WuGfrckD9PM7M1jkukP8NS1ylfvnxn109PybkWTe5L+1/vS30NKv7rvqeZZYLtNPvfthO0abbLu17l17Cq/dGS1697bM02Vvxc4KpTv902MaDsdaZMa1wH47Zk2aJOPM70taM41+xnv7vc9cW5VnKN8c5Xtz15XMfnaznTRt367nWiDulaE6pTBwAGAIEhAABAnzC/KBe/uHuTWTYgKJtgCicPhF+4m+238ct7SjwZ6U8w5OuKf5E3y3UwUebum8qJQfMLfzwhmPe5kPUtnGyw+zA9kVhMsNhlin2e2J/F+qT2iu3x91fRN4ewr/ztyKW2NV63HUvCsSn6UCwT9jHnL9/sizRJZOrJ77uibTd1hX7q/V1z7ORtlk36xJNlEbOuxDG3pH0TjU9nPJr9ktwGu83BeIqOQ7QfEust+t7J+Z44hypVnkMl2ji+HfdvQJ1+XyMKC785PmRhoWbGRXxtk+hzMT5nMnZsued5Uhc+S2PBNUcz55V7PZOvFYXomlrCO4eC61t9tm/S/rfn9bJsfy9auCBxffSXaX1+BG2ZuuF1Pd9fZjvcY+ddv+uQPy/Kr9mx1nekpT9/zPFpo030O3ccOuOi9DMvP8db56czzvX/i8v6deJxptss1h+0pzXPn4qxK9YJ+5trXWfjfdDOdUq6VufL17veG6NZH+y1Rbz2mzrSNQYABg+BIQAAQF+xE4HFL7TFBN50JybdibTa0r805xN67i/q/mRB6hf5diffkhMtJeJ1FG04/WlOjMbbkNzX0bEojpU8YZHvo3gCRSsmSopJi+TEibsdVcfQrZsaN83tlid23H0c9jHX2mbzmDjbVmvdrfEbS4wHqe688+y2Fsu440De366879XjxdSzfY//vUAt0ut092upfNujiSh73BaN5O+b/4pt2n3nHTN3u8P3csVxiseZXdYu4+9ru2+c8dAOaUwbtr3k+yVa/atxnjf3qfDekHnj/XFYeO3OIQwLNTMuqq8Pmh5v8aRx6/oVv+cz41U4H6eluMaL1+34vMjPmWB7m+d01XlUXI+k9zT/+tFUto+l93R/gs8Hb53RMvr6qK//2Wvesql9nvfTazNYbjpa16U0aR+WjQ/3s0Z6H4NKj3/nvLTjdESPB+mc98ZIMM7FMe7XiceZu37hvKm8fmbLLNTnZtbGiF83Nab1eRD/DFl1baqn+NmnjHgd1/sutZ1mH3SnfwDQywgMAQAA+o7+hXpB9gtr+YRlfbo9+wu08Au9yPxCnf6lOZ6ozNfhTVQIv5Cb5er2IdOcEKi9TN4Pd5IgbyPclnyyxG9Xeq2lmDh0J1iK/kmTElL9Qmq59DIlx9BMcOTvtdor6vvHIN//eRjnr9vWd9qW++j0QxgfRf9T2+VOijWPbdiOsz3pyXB5vxbkYx4z9ew2p/7tjym7/eJEsFvPed1uT7O/dhuielLbeln7fZnnXL8uH5/eusv6Y8dz8F7dfdOJvO1snXVIfXaOfdnxjfbpkJLCwvM3NMS6Q8G7dlSTrm36teb1qkpzDNtzTapTh77WlH3mlr3nngvNeva6UIN8DiWuRUUf3H+7y6X2v/O5Ei1r+ty6zo9dn/3s44QRIwvDdeb7utXv8P8zuk13nR2Tr6Et+X4quw5N+5qIAaLHSzD2s2PevCs1+JnDH1fBOBfHuF/H/zlGc9cvnDfmHIt/bm/K1pn/4VPehm4/X77VX33tdK+r4f9H+2AazHU6eZ7n2xf/nOVIXa9EJfsFAPoQgSEAAEC/MxNq0i+wgmjCKf9Fvvl+3Uk0s870L/XxL+qtCQP9//kkWfwLdvkv+LFiss2b1ChjJwBa9VMTfvb1oC/p/tn9GL5XTDgIy5i2En0vtiuczEguU4yB1L4T3s/bco9ha19E22m3w+2P3MfWeIr6WOwLcdIz3H+2L1I7WnMiR5ik0e9l7YyUBOp536snpYptFBV9tfs276fdjpJtjCao7La42yn3L15e1yvuTMxf1/9uLee2o4+pvy/lsV9333SiXttl+zBT4/hK+3TYSGHhr9w7xGGhZsZFvYldfb60zrX8XCnGk/+ezFxDU2O42yo+jw1v2/3rhCw/D8NzKD+H3deLa7Vub1yNNdu053H0ORLsf913t07G+/wx22aXsee+DlDCdrxj4r3vHzsjWGexTSnJY23WU/W+vJ/NOoPtNuocSwwo4fO7eQ1p/UxkRNeWYJwL51VYJx6D7vqF80Y471r0svo9fxs0fzv89+NrabC8Pcfc89EjnUOGbid7P3kNzt/3tq+QPG/zZaqu/QAwCAgMAQAA+o7wi27VJJN5P/zl2P5CbX7JDyYjakmtz7YVTUQEExXCxIM3UVhD3k7il36JnXxo1U9NANhtCCYbUv0r+pFsR9hXpq1E31PtpZYpayvnHuv8tWgdzr7J32v1Ofx/cXkjXk9Yv1yxnG2najJIWE+o3npb3H1olrV9SP272PdpxX4r+izzj52t642//LXW/tb/r7c/fD1R31wD3P0lj/F8f/nHunobc+nxl8vbqThmxQRhcqKvpd1jW4j31WCRwsI3fGvIw8KQPh+i63t8nZbocVw1hsxYrzGGu6Lq8z+irw1V9fPrh3tOm20qrsn2Z4poveF1xtYz7ZhzOzj/9fvRdd7pn/t+9m+xnXCdmVZf8+ucd20K1ulez5t1rLJjLV0rPaaf0vt5nyqv2Rgy7nkpjNvmz5PSZ21Q35wTed1QUSce9xXrT52/+rXsvUVm3LptFMv450B+3uTtxOdX9fJNwXkcvedsayw/16T3U9cD7/oHAAOOwBAAAKDf2F+E/V+y7USC+Mts/otxPDnq1i9bXmD6kPglXlqf+aU/mKgIJx4y7f5CnrdTNikQCPpR9DU1cefvM7uPoklg+7quXyJch9nW7PXkhEUby5S1lSv66Oxzuy+K7fGOiX0vX7+wbLN+2Ee734RjW9Qv568/PRbS66kj70tq/LaYerYP8r/D8SONm0JY14rGpBVNePnL62Oe/1tuN99Gd/+E41cez9K+qTwvU9vgsesra0fzxp7wvtnekmNn95t8DAbfz9wVh4U6QJTqDq1ijGVjpDUWx7OxXzXJnCuut5VmawyWfh5L7HWqBnlfZOfy9dJ1o1jGvdPQYfZ7cM3WfS+7JkjvB+2UHQ/3EYmpNt1re7OO1brOBu/ZMVR6jM1xET6jEsfLbIfbXtW+wYBxxmp4rhTjLRsP5jsNs3/74zL/fG2er+LY8evE4949V4L2tFrnr3++udeFUPEYdf8aE5yvZp3xuWIkzw/dRrYO8T0r2W6+bHTOm3PW3fagnwAwYAgMAQAA+kw+OSZMQhUTCt4Elv3FWarvqTmZXzC/PCd+Wbb9iCcagokKoU9m2+r2IVNMRvgTDiVsP1qTAXb/hJN+ZvuC11PbXOz3Sv72FpOcUt+L7QonLVLLlLWVk8aBPebmNfvv5va6/y/vI7mP6fGW2iZRsU+TY6FkXEcTO7G8L9WTPaae7YP472hMJMaT8160/dL5YoTnpLu8/h61ZXYbhXbt+I3a9Por90faN5XnZXIbHNG5l1BVz26b/L7d/2V9HVBPvHhC/fuVflCovWU1YaFnWuMrp8+HqnFszhnxOjADoutQFX2eVNXPz6Wyczq/VmTbaQTXXN2n8Dw0+75GPYd73W2+LrWTJGxrsE5/O2LxsbbXmao+mOMS15HGRt4Hv+7YqP2+zCG8ng2n1lhtjZFirPnjsBizrdfynxdKP4MD8bnlnitFe8X6s9ed7w712vDGsttGFanPwfL2eu2ej57o3LA/N1X1wbQr1JHOWdsHr5/68cumbt1tBYD+QmAIAADQV+wv76mJSPMLbPF+8Yt+xaSWEYYTFcp+UZbeC37hlibHtHYnx4pJk/qTJHY7nf2Xt+H0V/c168My3ZdmH/N9KU0SF31ITyAXExh+P822isu16ofvFctE21sc99S+S7zf2n/x9uXryrbfLhuuU97ukjFX1UdP0U7ZGJPXk/e7fBInOuYJxTaKxO2w/RbPz8QYkiajCtl2Nu+CStYL222NnyTTd7k/0r6pPC/LtsGqu8+LY5tqqzkuo/eK7fbXodcb7fMBc/PYlPq+FXFY+FsPERZ67NiqHA92PKc+Z/UYrGqjTp2uMdtV49xq0ud+Vf10ndZ1MXX9zejrhZ5Ud98v9msoeW2JP68N0450DRCYfePWLa4TrdfM9iT6EB/H/LopX4Ncib7b5d3rm3RNa+1jKzEWMShan9v5z2N6PNixljr23tjOly/7DA7F474Y2y5nXArnnRm7Xv90GzWvRaa9+PM63wfpOk16+73+F/uwev2m38I5H22P/czw9mt0HfP3CQAMAgJDAACAfiL98hqydYzak0ytyYr65F/KxV/Eg1/680mB+Jfs1C/xKdHkQg35MvIkRc72K5gUkCd/iwmW8gmKZvvCRES4rNkHiXUW78V9cSZ6xH2fvxftJ/veOfPifZL37zy1aKF+Lz5WxTbVn0x1xlh0jOPJrtZ+kPpVvBeux66/YtxLY0Bi6tm+Sv8uHg1WJd9Hed+iY2ePQeUYTtZLtJti2tHbLi8n7Rt3TJZJb4M9LtFxF5Re49LHN+93uJy+Q0d6fXB84ekp9c9vjsPCP3+UsNBVjI/2zhN5zOrzIW4n/Aytvr50jb1W11+fPo+E+sU2F+qcr8U5aZWeZ6b94Jqt+95cj/RziPBZIrVT8D4fcq0+2fab1+52j5FdXvp8CfedEfcxH4fu6/7+a3H6Ztse1GsYinGvx0U+Hmpfp5qkc6eG4txrnjeJ88qoc34mri2acI6429n82cPcydj+PjA/p4jXLOkcS1//3PMs9bNPq28l1wQA6GMEhgAAAH0k/+W15Bf6mpNWMftLb60JwkxqgtKuP/pF37zeqh9PmuXSv/DLmhMM0uREkp08aGM9ScUkS1VbzePibnNqonCBWma2K96PxaR3k7te8di3yJMvTh/CbXDbE7av6IvfbtFeYsxV9NGfEE3tn8y884T9mbHHo2pite64MePRTgSZZex+cP/tL2P7LE4e5e/J50aNyeBkvUS7VRLtSfum8rys2IZirFRuY6bs2KTaKV5P7YOyNvvV6n1T6qyH4u8r/H9vmVSfe2pKXGZo1T3HQnq5edk1ptfHTerzeEaEoUHiWt+LzPF0rmN2XLS2pcxgXT/QW0YWuudRe+Ff/rmXL9PONc58LpZ9rs8q3X/3HOtkH7jtAQCmozuB4aTa8vnfJzAEAACYWekwwv0rWH/CwA1dyia87C/ndScPEhOUyUAzqF9M8ItqT2AUEwodTFgWE4XTmixpTWjUmawojpFf1z0+Wr4tZQGIe6zj/kuTLOUTnXK/tPLtk/tYbE/ZMWmnj3HdfH3yepLjL1AvQMrXUZxP7uSa+29pmRkJDJOhQKLdCtI+KI5paz/7y3SkONdq/gV+fgyl7SzGgnN83Qn/sH0bHvuqx0avO3D8hLr0sYb6p9/wg0LtF+9pqG/tJSwEAAAA0JmuBIbHHlAf+c0/JDAEAACYUXYCvBkslE2WS9wJ9Ki+nYyvGaCJwUzYP4ep77SdBxPx5H1Yz+WGGa7KoCWpCJ3S4UhZf9BjomCqdXzbpcdDaoxq5r0OA0NpfVr5OBbCsqbqwDA/X0NyWJj3o+jrdAO2NtspCxcT78nblonaKDs2/eFvn5lSr7srvqtQO+/hhho/Ji8HAAAAAHUQGAIAACBTHhhKYZ0fUNjlm5PxRcDR4gYiqTBmbgK6dJDTeRiJWVcSWHdCj1G/LX9My+spC6Xy96JgzwZhbnt1Ar7uyrct3CbpvK8jb6ciLBTvAMykzv9uHF/TxnRD0Nn30L4pdfZaOSj8lXsb6qZnuasQAAAAwPR155GkL6kt1xIYAgAAAAAq/gAB1fYeO2G+i/DNq+Wg8NW3TapF2wgKAQAAAHRPdwLDvBAYAgAAAADQoTvHp9T7NzbU998eh4QF/fjRLQfl5QEAAACgUwSGAAAAAADMkY0HptTHnphSv3yvfDdhgcePAgAAAJhJBIYAAAAAAMyCpw6fUF/fPaX+ektDvX2koX6w5E5C7RW3TKp56xrqa9kyUnsAAAAA0C0EhgAAAAAAdGBy6oTaO3FCPfniCfXwC1Pqnr1T6htjU2rp6JT6zI4p9dFtU+qvNjfUWx5sqNdUhIOu//ythvrrLVNq9b4T6unDedC4I1uHXs/2zBOHTqjHM1sz+vGkj2U2ZzYdmFKPZvRdixuy/ug+rc+s2z+l1mbWZEb2TakHM6szDzw/pe7P3Jf1+96M7v/dzwHoZwseb0T03ckAeoP08wQA9AoCQwAAgGk4PHlCPXPkhJmYXfXclFq+a0pd9ZSerJlS/3NTQ713fUP95khDvfF+AMCg+H+EkA8AAKCK9DslAPQKAkMAAICanjt2Qt22Z0r9361TJgT8wZXyL4EAAAAAAISk3zMBoFcQGAIAAAgOHj9hHs12xfYp9Z51DfUzdzXEX/gAAAAAAKhD+t0TAHoFgSEAAIBjxZ4pdf6Ghnr1bfIveAAAaPqxpP/sG5Pqn2b+SUaq065/efOk+vFvTqozH2io31vXUO9Z31DnZn4/c97DDfW+zB9k9OfUH2b+KPPHGxvq/ZkLMn/ySEP9aebPMhc92lB/nrk4c8mmhnlM9l9k/tfmhvpA5oOZSx9rqL/K/O/Mh7bo701sqP+TmQ+gb711dUO9xXFhdj345PYpAD1C+h0UAHoFgSEAABh6jx6YUn+zdUqdend7dxF+34pJ9Z++Oal+9b6G+u2H8glbPVHzmR1T6u93T6lv7Z1SWw+dUPsm5PUCAAbH8an8eq+/13bLwRNqzf4pdfdz+Z3qOvT7uTY/Y/7LvQ21OFt252F5fQAAAADQTQSGAABgKL1w/IT60s78uwiliVrJT9+Vh4J/v2uKEBAA0LZDkyfU/c9Pqc/umDJ3BupQ8JW3yJ85he+5dVK9d31D3TrGXQkAAAAAZg6BIQAAGCobD0yZR7b94Ep5YtalA0L9+DcdLO48IrcHAMB0PHfshPr8U1PqrQ9W/wGLvlNR3xUvtQMAAAAA00FgCAAAhoIO/PT3Nv2rkjs5fmjlpAkIr3l6Sj12UG4HAICZsuGFKfNo67LHl/7rWyfVh7dOqRcn5TYAAAAAoBMEhgAAYKDpx78t3DZVekehvpPw8iemzF0eUhsAAMw2/QjS8zc01Ktvkz+7fv7uhlr6DHcbAgAAAOgOAkMAADCwrnpqyoSB0kSrpr87Sj8GbmJKXh4AgLk2qu+Q39RQ//Jm+bPsHQ81zPciSssCAAAAQF0EhgAAYOAs2zWlTr8vHRS+5cGGuj6rIy0LAEAveviFKfXe9enPtiu287kGAAAAoHMEhgAAYGA8ffiEudNCmkjVfndtQ92+hwlVAED/umN8Sv3Gg/Jn3R9uaIjLAAAAAEAVAkMAADAQVu6ZUq9dFU+eaueub6gH9xEUAgAGx9+NTqk3fCsODn/1PkJDAAAAAO0jMAQAAH3vk09Oqf8nmDDVXnP7pLr6aYJCAMDg+r11cWj4726bFOsCAAAAQAqBIQAA6FtHGyfUH2+UH8v2O2saastBeTkAAAbJH22QPwulugAAAAAgITAEAAB9acMLU+rX7o8nSP/NrZPmjkNpGQAABtVHHp+KPhM1qS4AAAAAhAgMAQBA3/nq6JT6gdvjSdG3PdhQ6/YTFgIAhtPtewgNAQAAAHSGwBAAAPSV+Vviuwr/+Tcm1WXbCAoBALj7OUJDAAAAAO0jMAQAAH1DCgv1Y0nv3UtYCABAgdAQAAAAQLsIDAEAQF+QwsJ56xpiXQAAhp0UGv74NwkNAQAAAMgIDAEAQM+TwsI/3EBYCABAGSk0/J01fH4CAAAAiBEYAgCAnvYhISy86FEmOwEAqGPFnjg0/PBWHuUNAAAAwEdgCAAAetaFj8Rh4aWPERYCANCOL+2MQ8NPPkloCAAAAKCFwBAAAPQk/f2E4eSmfjSpVBcAAJT76LY4NLx2J6EhAAAAgByBIQAA6DlvfZCwEACAbpPu3F+5h9AQAAAAAIEhAADoMW8jLAQAYMa8fcT/nP3Zuxpq9xG5LgAAAIDhQWAIAAB6xvs3EhYCADCTdh4+YUJC97P2nLV81gIAAADDjsAQAAD0hMuE71YiLAQAoPtWjsefuQsf59GkAAAAwDAjMAQAAHPu70bjicvfeJCwEACAmfKxJ+LP3m+MERoCAAAAw4rAEAAAzKl7906pf3GzP2H5M3cRFgIAMNN+b53/aNL/9M1JteOwXBcAAADAYCMwBAAAc+bpwyfUT63yw8LX3D6pJqfk+gAAoHvGjp5QP3e3Hxr+9kP80Q4AAAAwjAgMAQDAnHnrg/4k5T//xqR6cB+PQwMAYLZI32fIdwgDAAAAw4fAEAAAzIm/eswPC7UvP0NYCADAbJO+z1B/v7BUFwAAAMBgIjAEAACz7paxeGLyiu1MTAIAMFfC7zP8d7dNqrX7+WwGAAAAhgWBIQAAmFXPT5xQpwbfl3Txozz6DACAubTn6An188Hn86/c21AHjsv1ARTWqUWvOEUtGpHeAwAA6B8EhgAAYFZdsDGejDzakOsCAIDZ883xKfXPvtH6jNbe+zB/1CPrkZBodJk6J+vHOdePy+/PqHG1bF6b6zb9PU8tG43fG7v+PPXKecvUWPC6xyy/QI0Er48sPEW9cuE677WIXjas4/Un355OjqlZf1Xfa7Rfax9gwOhxEY9pWX7deaVRd5k5MLLA9LE51uf0OgUAaAeBIQAAmDVLn/EfRaonJe/Zy+POAADoFZ/YHj82/LJtA/BZbSes84n2alUT270R7OQBVN7nqvDArVtT6fblwYXeT2Ojdl/pkKBin5j9JgZ7NcM6KTCUXhPl63CPrX8ca/ZBpPeHHIS2ZPvq+jxISYWbBIbDKTruNnCLSWOsg3Nbm8lxRmAIAH2re4HhfgJDAACQtv3FE+pH7vAnIC9/grAQAIBe8wcP+08D0P5+d59/ZtcOlfK7xaJQyZ1ob8NMTpCbu9rsNtW6w06QDvDS8v0R70sdHLp9ct9LBrZFaJF6PwxIouNYHZZ4x8AsX7Tp3q2VVoQe+bZ1xgshvT74CAyHVRBm1wjfW9oPumd8nBEYAkDf4g5DAAAwK353rT/5+NtreMQZAAC96IXjJ9QbvuV/br/6tkn14L4+Dg2joCktDAxDJjia41AnD+3c0Kl1x19Yt0x7gWE7dzJVBX0ZJxTR+zQKPNxgTbzjaoFaVhF8SMey+ZppMw4f6wYv3QhdzFiKtitUb9yiz7khofvvSgSGAIDuITAEAAAz7son/ceb/fDKSfX4IbkuAACYe/c9P6VeeUvrs1v7ubv7+I99uhUYhhPhcyAPmaQ71NoPDUu3tYoNAaR9EQWRZYFhKhxxA8PiNbP/bTtBm2a/eOFncNdWpZkNDOvUn/EgB/3BXmfKtMZ1MG5Lli3qROPMLrNoJG+ruUwwFs1ywrXHnHtie/b/7bWi42sNAGDWEBgCAIAZ9ciBKfVvV/gTjtc9w6NIAQDodVc/HX+f4Vsf7NPQUAqsEpIhmp30bk6ml+ng8aDVisl8ZzvMxLw7gW8fs1lr/W0EZDUCDJntm7T/dZvzlqll2f5etHBBvM+FZfKwVAvaMnXDIMPZPvfYmWAjCEZKxQGJFoUkFcayPuSPQJXbM3UIDIeMOw6dcWHPDXkc5Od467wNzmNxWb9OKjD0+lCcM861hMAQAAYfgSEAAJhRZwePIr3wER5FCgBAv/jLx+LvM5y/pQ8/y82E9XQCw9b33VVNepvJ824HhsLkvWEm5hMT+M3tbfW9fdI+syFH2JeyfSy95wUbYQiSiZbJ6sw7L38tCEXkfR4EKVqw3HTk+7ict253ucT4IDAcVnr8x4HhiB4P0jnvjZHuBYbhtc2/jhAYAsAwIDAEAAAz5gvBnQk/e1dDPT8h1wUAAL3pXWvi0PDu5/rsaQFF4FaTP7Gdh1n6tTohkdGc5LfhmlSnDj0Jbybf40l6o+w9u81SaGWYZRMBX5INH90Qw6zH9sH9t7tcav+7IUO4bNC/sesXqGUjuk7+2sjCcJ1hQDiTgaE9rongTwxAA3n4EuyPlOR6MBiEwDA75s27UptjVhpXwTgXx7hfJxUYhuM1H6MEhgAwTAgMAQDAjHjmyAl1yp3+5OJXR3kUKQAA/eiX7unz0NBMWNcLx/Tkd2ti259o99+Tmcnz2Qp4zMR8PIFfLd+ufFuCsCKhCLhaoYINzWxYN9Zc3oaKboAg7X8h2PCCB7Ntdhm9vH5daMc7Jt77QZCiBeusCu2Sx9qsp+p9eZ9GYU2h42OJ/uefg2aMNK8hxXlmRdeWYJwL51VYJxqDZuwF50pRL+yXMEa981YL26s6XwAAPYPAEAAAzIg/2uBPLJ73MI8iBQCgn4XfSaz13Z2Gmp7MDibdm3erOa9JBiYwNMsVwVp1YBgHeTq8CJbx2mzVM6GBEPSZ96Ngw+mL+372b7GdcJ2ZVl9rBoZRH3JlxzoVnDQlA8O8T3G7echKoDKs3HNQGLf2NSnUEwNDc37GijoEhgCAFAJDAADQdV/b7T+K9IdWTqonX5TrAgCA/uF+vhf6707DU9Q5C9c5IdG40o+7lCbMQ2ZiPKtXqZcDQ7sPWtuaCAzF0GtcLbve37Y8RMi3e9GIe6ehw7RVJzB0SO8H7ZQdj0UjwnYFbUbBiSMZGNr9V3qMzXEJtrf5eiJwcdur2jcYMM5YDc+VYrxl48F8p2H2b39cCoFhNHb8Op0GhvL4tWFmWXt2GwgMAaD3ERgCAICuOnj8hPqF4LFlVz3Fo0gBABgU7md8oS9Cw6pJazvJXTapnQyRHFH4M5PECfwSYjBQFhgKoVfGDQmjYEyvIwwspLakeg4xzCvpU6xmYNjcjlh8rHWb+r2KPpj9HNeRxkbeB7/u2Kj9vsyS/YNB0hqrrTFSjDV/HBZjtvVaEBjWEJ1b4nWhWJd7Dtk+SedQWXsEhgDQNwgMAQBAV31wsx8W/tZDPIoUAIBB437WF1bs6eHQ0E5gV05Y24ntVOBXNzCctYlxs131AkMTRIh18xAgChx020Fg1QwHUmGYfk8vo7/T0H2/2K+hoP0We9dSeBzaCQzNvnHr2jad16LgxBEfx5phYarvwn7O95nfXmsfW4mxiEFRjEs9NvQY0ePBjrXUsffG9mwGhpngXNbniBnHZe0RGAJA3yAwBAAAXbPqOf9RpN9z66Rat5+7CwEAGETuZ37h6qd773O/CGBqT1YXE+JCkBSHSFprwj9XL8DrCjMxX7W+ivAhE4VUVnkIUQRoNepKQZ/ue3Mfh/tQE4K5ssDQhhSuVp9s+9n68sc6tnuM7PLSPgwClFzcx3wfu6/7+6/F6Zttu/w4oH8V416Pi3w8tB+qSedODcL1DQAAAkMAANA1v/6Af3fhZdsICwEAGGSvvs0PDLX5Wxrq0HG5/qzrNHDRy81boEZmK/jrVK3AsFvCYCIR3PUiczydgEQM+VJmMQDG0BlZ6J5H7YV/ebiYL9PONS66wxAAAIvAEAAAdMWnnvTvLvyv9/MoUgAAhsGv3Ov/wZD2ursa6ss7+cMhAAAAoF8QGAIAgGnbefiE+uE7/InC23v5e4wAAEBX/c6aODTUzhppqPv28jMBAAAA0OsIDAEAwLRd+Ig/SfiHG7i7EACAYfP76+XQULv40YbafUReDgAAAMDcO3B4Qn33u9+1kd/0CoEhAABD6I5x/1Gkr1oxqbYckusCAIDBtvSZKfUT3/TDwsJ/vGNSffrJKfXcMXlZAAAAAHPn0JHj6tvfedlGftMrBIYAAAyh/77av5vgI4/z2DEAAIbZ7qMn1B9vTN9t+H0rJtXZaxvqizun1KHjchsAAAAAZteRiUl1vHHSRn7TKwSGAAAMmS8+7d9deOo9DXWkIdcFAADD5e93TanX3Z0ODrVX3DKp3vFQw9yZeHxKbgcAAADAzJtsTKmDh4/byG96hcAQAIAh8uLkCfW6u/xJwM89xd2FAACgZd/ECfWxJ6bUL99bHhxq//Qbk+q31zTUoqy+vvvw5rEp9eC+KbX9xRPqAHciAgAAADPu8LHu3GVIYAgAwBDRjx51J/l+8Z6GWA8AAEBb9dyU+pONDfWa2/2gsK5/efOk+vcrJ9XP391Qb7wfgORH76wO513/7YEGMCek8VimwV3oADArprLrrb7L8MRL37HRX2eFwBAAgCGx7dAJ9erb/F/guLsQAADUoe86vObpKfXWBxvqe271f54AAEBCYAgAs0c/mvTA4Qk1dfLbNv5rvxAYAgAwJC7Y6P9FKHcXAgCATuhHjd4yNqX+8rGGOuO+hvpn3/AniAEA0AgMAWB26dDw0JHj6sjElPr2d162MWD9QmAIAMAQGNnnP4pU4+5CAADQDcen8keXzt/SUBc92lDnrm+o3xxpqF+9r6F+9q6G+uGVk9yVCABDiMAQAObGseMNExxqx45Pme83rIPAEACAIfD767m7EAAAAOhFxxry6wAAANOh7zicON5QRye0yUoEhgAADLhv7Y3vLvzi09xdCAAAAAAAACBHYAgAwIA7Z61/d+Gv3c/dhQAAAAAAAABaCAwBABhgd47Hdxd+bTd3FwIAAAAAAABoITAEAGCA/dZD/t2F/2OEuwsBAAAAAAAA+AgMAQAYULeMxXcX3jHO3YUAAAAAAAAAfASGAAAMqLc96N9d+J513F0IAAAAAAAAIEZgCADAALphd3x34cg+7i4EAAAAAAAAECMwBABgAP36A/7dhX+8kbsLAQAAAAAAAMgIDAEAGDBfHfXvLvwXN0+qjS9wdyEAAAAAAAAAGYEhAAAD5o33+3cX/tmj3F0IAAAAAAAAII3AEACAAfLlnf7dhd9z66TaclCuCwAAAAAAAAAagSEAAAPkl+/17y78i03cXQgAAAAAAACgHIEhAAAD4uqn/bsLX7ViUj35olwXAAAAAAAAAAoEhgAADIhfvMe/u/CvHuPuQgAAAAAAAADVCAwBABgAn3vKv7vwNbdPqmeOyHUBAAAAAAAAwEVgCADAAAjvLvybrVNiPQAAAAAAAAAIERgCANDnwrsLf/TOSbX3mFwXAAAAAAAAAEIEhgAA9Lnw7sKPP8HdhQAAAAAAAADqIzAEAKCPhXcX/sxdDXVkUq4LAAAAAAAAAJJ/NDU1pQAAQIv0gdmrwrsLP7ODuwsBAAAAAAAAtOcfNRoNBQAAcv0UHoZ3F77+Ww2xHgAAAAAAAACU+UfHjx9XAADguJqcnDSk8FD6EJ1r4d2F1+7k7kIAAAAAAAAA7ftHikKhUCgUiinf/e531Xe+8x118uTJZoDoBofSB+lcCe8u/LX7ubsQAAAAAAAAQGcIDCkUCoVCEco//MM/mJCwF0PDY40T6heCuwuX7+LuQgAAAAAAAACdITCkUCgUCqWk6A9LfbdhL4WGi57w7y5824PcXQgAAAAAAACgZbIxpSaON9TRCW2yEoEhhUKhUCgVRYeFvRIa7jx8Qv3gylZYqK3Yw92FAAAAAAAAAE6oY8cb6tCR48ax41PqeONkLQSGFAqFQqFUFP140omJCe/xpNKH8Wy4ZJP/KNJ3r+PuQgAAAAAAAGDY6TsKdUh4ZGJKffs7L9uZzfqFwJBCoVAolBpFh4RFaDhXdxk+tG9K/dNv+HcXrs5ek+oCAAAAAAAAGA46LDxweEJNnfy2nc1svxAYUigUCoVSo3z7299Wx44d8x5NKn04zyR9N6EbFv7JI9xdCAAAAAAAAAyzqakT6uDh4+rES9+xM5mdFQJDCoVCoVBqFP1Y0qNHj85ZYHjz2JQXFn7vikm19ZBcFwAAAAAAAMBwOHxs0nwH4XQLgSGFQqFQKDXLkSNH5uyxpGc+4N9d+KEt3F0IAAAAAAAADDP9KFJ9d2E3CoEhhUKhUCg1y+HDh81jSXVgOJt3GV79tH934Sl3Tqo9x+S6AAAAAAAAAIbDkYnu3F2oC4EhhUKhUCg1y4svvjjr32P4wvET6qfv8u8uXLx99r8/EQAAAAAAAEBvOXTkuPr2d162s5fTKwSGFAqFQqHULDownO3vMZy/xQ8Lf+Gehjo+JdcFAAAAAAAAMDwOHJ5Q3/3ud+3s5fQKgSGFQqFQKDXLbAeGmw5MqX9zayss1P72Ge4uBAAAAAAAAHBCvfDihJ25nH4hMKRQKBQKpWaZ7cDwfQ/7dxf+9pqGWA8AAAAAAADA8CEwpFAoFAplDsqhQ4dmLTC8fc+UFxb+k8zqfdxdCAAAAAAAACBHYEihUCgUyhyU2QwM37zav7vwf23m7kIAAAAAAAAALQSGFAqFQqHMQZmtwPCap/27C3/sm5NqzzG5LgAAAAAAAIDhRGBIoVAoFMoclNkIDHcePqFOubMVFmqf3cGjSAEAAAAAAAD4CAwpFAqFQpmDMhuB4R9s8B9F+qbVPIoUAAAAAAAAQIzAkEKhUCiUOSgzHRh+ddR/FKl213PcXQgAAAAAAAAgRmBIoVAoFMoclJkMDMePnVCvXeWHhX/1GHcXAgAAAAAAAJARGFIoFAqFMgdlJgPDCx/xH0V62r0Ndawh1wUAAAAAAAAAAkMKhUKhUOagzFRgeMPu+FGkK8Z4FCkAAAAAAACAtG4Fho9+5g0EhhQKhUKh1C0zERjuPHJC/eQ3/bDwkk08ihQAAAAAAABAua4Fhlf8PIEhhUKhUCh1y0wEhvPW+Y8i/fm7G+qF43JdAAAAAAAAACgQGFIoFAqFMgel24HhFduFR5Hu4VGkAAAAAAAAAKoRGFIoFAqFMgelm4HhvXun1L+62Q8L/2YrYSEAAAAAAACAeggMKRQKhUKZg9KtwPDJF0+on7vbfxTpb47wvYUAAAAA+sTIAvXKVyxQI9J7AObQOrXoFaeoRSPSewAGEYEhhUKhUChzULoRGO49dkL96n1+WPiDKyfV5oNyfQAAAHRLj0yiji5T52T9OOf6cfn9HjWy8JSZD4jEfTOuls0Lj1ufTYiXhGtmvy5cF73uGrv+PKFOzX2QrTsaa15/dDvnqWWjzvu15OuvHsfV7dfZBxgw+lyve8zNeNXXnxkcJ+ba45+j8nkXEJbTao1paR+Y9orzRbr21WPWP2+ZGhPea6lu3+yDynYAzLVuBYbq5ASBIYVCoVAodct0A8OJxgn1tgf9sFBbtotHkQIAAETMxKmdJK6hKrjojYnPfII27/MMh29dNneBofR6e4FhvcnzmaPXL4/PemGdFFzUCjOMeF/5YUa9Poh0kFO1X0fH1Yjuq3RcLb8/GA75tdAdE/k1RiCOsXxci/XLpMaZucZ0KTCUXhPF+8D/nOo8MKx3Xo9n67NhbGI7e+NzE0CVrgWGWSEwpFAolF4sL9v/UnqqTDcwPHttHBZ+eSdhIQAAgKj2pGscyJhJznCiuKZUqNEN+YR4vk2EJIIoGHTpCXA7Hmy9ehPpNqSdi0lv984oV3HcU+8H4z4KLuz2y8tqQVDg3lFYuaxWLN9hKGME567bhwDnwpAyY7E1VsPreLn2g+7ScWb6UnHeudegQrSc+0chMm8bvX1Q73wrrnv550lnvGtncBxcBIZAf+jTwPCQuunC16vXvu71avEm+5JYXlKbrzpfzfvQMrVyp7Oh+zeqaz50ndrcsP8/zXJy71a1fu1GtXnvS/aVGShj96klV12tlty7176QKnvVTR+ar5bcslWNn7QvdVoah9TBjvbRVrU4OzbVx2ca5eWX1PjaZeqD7zlfLdnShf3e2K22j9l/t1s2LTHb+trXLVGb7UuU8rJ56bnqne8+V82/65B9pU4pxtUl6qb99qV+LC8fUuu/cKE646IVarxOkNdYoxa+6UK1+M4daqKT4G/sRjXvjPPVB5euqX9N2L9CXTAI+7rHy3QCw/M3xGHh558iLAQAAEgSJnBTqiaazcTqHE965iGmOymbTw7PZEDZd8wxr7FPSia4Y3McGAbrbYUQul/CNjjBmhgILFxmtie9j6QgpXWnUhwAtBO85O1Mb8xWByoGIcVQcK/dVddxXzvjNmfOJzcAdM9P4fPGCwyb16Z1akyv05ynwZjNll9WEbBJ29h8LQrVW+etWz+lG+Ge2UfRdoXqfS4DmD2DHRgeWaUuNpPep6uFIzZUOrlVXXNWvuypl96nam3+wfvU/Hefq975kfvUQfuSWw7ecolp74Jb2gk/svLyS2riyIQ6uGurWn/njWrJFfPV+y5Zocbt214pQqkrt9oXEkWHA2abz1fLOw3AsnJww3XqfWe8Xr09W19ZxrD92neoU990rrp4+Q6n3iwEhjpEOS1fx2vfc6Manc4dVI2sv3pMnHa+umZLBydEPwaGJyfM2JtRJQNn85X5sWvvnJmhwPDIbhP4T8/uetcSXfauUBfYsVt1fuV/9HC2HV9nq2t22JfbKNu/8I58+XbOk44Cw61qqb5OzrTEdbgfS6eB4SWb4rDwU08SFgIAAJTqVmBoJ3brTrrOhHwSVprcLgkNnQnqImBp1QtDF3ni3J/8zfZls82gnWiSOe5X3pZzPJr7Na+b/7tYvkv9s//fqlOX7ac0qV9sa6r/ifGSB77xePS3IVhOtxXs2yKE8MIIl1m/vx6zDlvXXy7vu7dOs8/aCVJ0G3Xr58dVHK8Jbt9T6tTB4AvPpZg7Tv1xm5+f5ctE48w9P6NrjQ3/dH1zTibOEfd8NW20zt14XLd7/uT1w2tRitkHbQSGdeq32yaAudGtwPDRz/xqrwWGL6nNVyYmyndcp95uJsNPVxfcUnXHXlaKyfMLV5iJ6pN7d6tx5847MTDcu7V5x+H4vVebuwMXXlJMep+t3mDWL3mHHArUDAyb4cAHVtUPMIRycmSxOtX0p2wf7VbL3533++I73bXNQmCYlYm75ts+dhDWuqWxQ13z3tPz/fa6M9XFdcaEWzoKDCfUqBg8zRQ/0CrG7EwqOyZiYHhyr9os9r2wzP4BwLlq8Z3S+y5ne7Pju/TK7BqQulu2efymo72w+OSGJerNZrmKa1C716qwSH80Uad0GBgW5/2MstfhQSidBIbzt8Rh4Z8/2hDrAgAAwBFMvpbRE7PiJGw7gdOMBBZFcOZsRzT5bAOrcP1O3/0JY9umM4mbT5a7bQrrLdaTae2ruC23rrtP88n8cDv0a+FEejf7l1B3At9IbGOq//b1OoFhap80l9X/H6zXtGPuEjxPLVqYCcOAaJnWfgnHiDiZ7543zW0slnXaquRvay4eF+XG1dhIMY6l9nJxsIKB5l6XnfGbvI5rZiy7Y0iPxda5m59X4Rjy60TjzD3XhM+b/Jz3+xjKrwFaML5Ne+E1Kr8WmXM+2gfFNbEO+dpn+lLS19BY1of8eiC3Z+pI1xgAPadrgeEVP99jgWFzwvt0tXBtPFG+/Vp7185p89U9VbPPTmC4+ZYLzXJvv7aV6sWB4Utq/eU6gDpdzVu+uxmOxE5XZ7xLB4gXqg9eoUPFG9XKtYlHm9YJDE9utHfdydvcXtGBa3Fn0/lq+S77sluadzNeqlYesa+ZMjuBoXp5t1r+nnw95jh6fWizvLxX3fSBM+32nq7eedXG+o9/7CgwnKVwpcnvW08Ghs1zthvs9rp3FKceAdo8fuerD+rH/rbjQ+f766td3PPrXLVUOr9e3tH+3dBBaV7n3nOjfOdyqkwrMKwIdB+4T93zgPB6la9cmm/LkAaGjxyYUm97MA4L3z5CWAgAAFCLMIGbIk80t8KRqoAjmkjuhmJCOGzXTHzHE7T5xLOzvYnl80nscPkgyLFBkRhGefsjEaYJwVDUv6itXHf7JyubxI7fKw8Mo3Ul+pZvV7z9fj27ruKY6TrBek07xfvmGAf7Klwm+/9z5uXL+OM836fRPhTOG2+d09I6p9KkczbfL6njOiPnH3pfMNbz8Z3fUR2Oa3/sa3osts4deYz7daJx5q6/o/Mmaz87N81ywrbEy+bngbdt4fk+DWad4jnZEl0viuUS22n2QZf6B2DmDGhg+JJafZm9Yyw1uayDhA9dp9bXmQx3AsODxaMwnYAqCgyDIK0IR3QIddA+rvFku4/QrBEYTtxpJ9Sz9S4dESbcS4ghZfGoTt3mWVerzcGzE8dvKMKSM9XbvccGtu6gfMNZ7uuBLjxa8OTaxerUM85XC2/p8Pvd3PLyXnXPh4sQJ+v7pTX718+BYdfDl9a52XZgOEN3GI5n21rciSqGhh0dP1ums6wOvD9wmbpph3wRboZ9Z2Vtd/Jdos3H9r4ju04G57d9HHLSjhvV+8x2XaiWZ/0T6xSa14ViTJeFjPbarM/ZB9LjQyzFvh7CwPALT0+p77/dDwq1/0FYCAAAUF8RmNUUTybnr9WZRDWaE6Y29JHq1KEnV/UkcBSaWWXv2W02k7r23/52JcKvIKjKt1kIbqI2U+219l/xWtSm2Y5wArrb/ZPkbek6ejI7rBtPcCf6JPY//bpp1+lzahvM68W6bFsRd3Le1Gm14/c/6/vCZWpEv2aW0QFF/l6zntlnTj/C/y/quuvslD0+UuhgBNsiyfdbPeXjAH1PjxfnvNRjY9GIPq/z86Z5/MVx5YeB8hj365ixF557xfo7OG90P5eZO2jz5UYW2nWZtvS/82tP63wJ/z8T7IPO2etcsr/5NT157mbM9jrnX6luXE8AdE3/BIbe94ytUouLR2F+xQkJtuw13wd2csvV9jF+rzffryeGVZWWtQIANzDM/rd47Ke+e1AXPzAs7i5s3YUohiPtlqrA0LkbqROpvp3M1lvsS+/71vT63hK30xZ34r/4nsi2na3eXhZKJl0m31n68iG1+nId1JzdClkmtqrl0t1lheZdZlV3qN2oNk/3fGs+ojLff+IdczVKzwSGN+1Qm9e6339ZVuoEUnIpDQ1nPDBs7ZOuqjh2ReAo3p3Y7Pf0tY5z9fFpHodO7ggu+tz1MTt3pSowfOH4CfX+jfFdhdofbSAsBAAAaIswgZuiJ4Jb4YI/Keu/J4smkmeSmfxOBIYuG874fbeTwuHkbcFOPJvtkSahozZte1HdaQaGRX9CbfdP4O2/eBK8GaQ1l0lso9j/9Ov5ZHpr+/P9kWLr6baC9cYhhO2ffc3tv/633hfxMiVhiXDehMuX913YJ5Zpp2Tsmvel45ox6/S2IZe3We88x4Dxzo/8PGiOPXstSI/JknMgUScag+76a5w3Hl1fLyssp9fTvIZ57wfbqAXXiPx8aG13KHlttPur/H353E2et+ZamD7fAfSO/gkM60xw64nkaQZnLU4AEASGzTsIT1us1p8MAsNdrfdW27uCOgoMtyzzA66z7OMyzzjbe33+XXmbze/zO+2t3vtVzjB3IJX17SW1/godkJ6p3re0Few072Z8y9VqfXTX0Rq1UL+XWfhA+J5jwrnrqauPo6yjJHR6eUKN75+JvrUfdHnFG9uJx8TWLHMSGDohXXFO5Jzv5xu7TwhaC/PtnbvvUBdcLr1fkIJZ9xGgQfg9iIFhc8z64+TkphVq+absuITXl9C73moD1uKxyWnFNagqMHT/+CC8jqU5f7gxZIHhneNT6pfukcNC/T2G7gc5AAAA2qQnLoOJ2+bdHM5rEm/yNiEVZsyIupOw4gSwHy6lmO2RQpiozUSYNt3AsGv9Cwnt22WKfsTHMrGNYv/Tr4fBllmPNMnu0m0FdcQQwmxD3rb7/sjC+LX89XAbnePltFW8X718Id9X0T5x3ivbZrMe8f28f1G7wbHDkHHPD2HcFuNDDpT9MNCMPVM31KoTjfuK9YfnjdZsI1vWjNtwOXP98NtpXSuE8yu4RqTPobyd1LUx3/6SzxXTT+n9vE9xu/FnAIDe1T+BYTDBXQRd3iMvP7JKrV9e3O31evW+5TvEoGr78vx7CF97/o1qu/B+TgiMmhPVE2rlB+w6btrrBIZb1cqL8rsL3bCko8CwTkCaMW2e3KoW27v9Lr6znQPaCjI+eFfJco3darP72ERnffNusEGPV4rgoI3vMKx6HOWdS9Q7bZveXaUd26rG693W1jN3GDYfUZlxv0OzkxIGhuP3Sv1tz/JNeuPSgeHo8nPN63pMNM+Jr9xoH5tp7+isOe7LJYJZ/T2V9vzUQdi8r+zOQ8NaoV+i1Fq2tU9S16R2NK9fyeCs9UjmN4d3BdvA+YzLN5Z/J2IzcGwn5E4Hhie3Xafm2Wt2e5z9OiSB4TeenVLnrJWDwu+5dVJduzP9PYcAAACowU4an7NwnTOJ2npsXVXYYCZrm5PHJcQAZQaYCeVOA8NiYliaQG9JTR7nr/tttiaznbrCuvP9GE6Mx/u/2/3zpPadft0cPxtqeccyEXQl+l9se/i6vP0Vx1HXCdZrtrFkrEnv+6/lE/lmzEay/tVYp9kWsQ9CoGEVx6bsfEu1my8bjok4qJC2HQPMGavhsS/GW/GdhvG5JgSG0djx60Tj0z1XzHnvj1GpTd2Gd30KlsuvE7JFI35/jOB8NesMzt9CtO6CvWaVnjt6PdE5WLweX8dK9xWAntOtwFCdnOiB7zB0H9eYSQV0bd9dFQWG2fZuuVEtXbvXfBehd4fh/o3qmg8tU9uFu6naCgyD7xgbv3N+3ufL13iv6+8PGy1C0rOu89ZbXRL7saIcvHd+/h2F9g7LuHQQGFYV5y6/rrVpy/gt89UHb5jGdyBOJ3CqWby7s9o+znEJzwH/jr/O5OM7HRjm6zjX3PHmnhPNbTtjsVp9pOy79Yo7V6u/Vy/5HaGNjXnYfVa2ruJkns7xq7Vsep90UqquX8396dzlrEtzuTp3p3YxMJzYcLV6ZxEWnpa9N2bfSJTxuy6zY/1sNf8u5w8Sin09gIHhsy8eV598YlKd9q04JCz8wj0N9a29hIUAAADTIgRXHjPZWfJ+JjnJ6ogmR2dSYoI2ktx2Gxh5k7c6fHHbFOoUk8phm9E+tAFbUC+fCHcmnO1ycYDURv/c9lL9C94X32uKQygt6ruW7H+x/fG2+m0I9TJ6Xc029XLBJLscbLRIY7FqGU+Ndeb7Iy3aJ8X2V/RB6nvpMQn7OWrDobrbiv7WHKv59cCMu+a55l4vinMtvIbUuI46ovHpnivm+pKdy8X6s9db3x1atJH3wzs/iuWadcoIfXb7kDHnqtl+WXz9E66lErNdcZ3k9SaoOzZqvw84OGcB9IauBYZZmdvAsLFVLQ4eRZqanO9GYOgWLzAUSkeBYVC2X5t/b2L0HYZ7i4n9d6jFG5y7Io/cp+ZfdJ1avavsAE8j2DuyQ63WjzYUS/8Ehie3tELmN3zgRjXqBCy1y3QCpzolO5YfbN6ddba6Zno3F5oSngMzf4fhIbXyIv36JWpltkL/nHhJbb5hmVpfeTLKgVS75eS2jWq7e5wHKTBsXgdPVxfc7qyrscbeyVnz7tQuBYbjdxbhX9afbIxcoPtQEhqO33Jp/scIrztTXXx7cPfyAAaGdz5zUP3ZusPqB249qv7xjROZ41FQ+AO3T6qPbptSxxryhzgAAABqshO35QFRpgiaEiGDnuSsaqNOna4x21Vjors0ICsmiQtSe2GdBWok0aY/Sa3bypd165nJYncS2R6fOHDTOuifnohObrOtWxUkJfvkrKuY8G6n/9l6pUn0VpDR4rVn1xFJbke+XvH4VG27FQcAdlucif64TkEIRIptqFq/PXbR/jSvu8ff7rMgeMjHV4s87jEw7Hgx55QeY3p8lZ6T4bjV47rGddQRjXvp/HTej8+7/Fzy+me2I7wuJJj1uXWL60frNbPORCin+++fF8V1qmr9dj3etmjx9uTnod+e//kgtQNgrg1IYKjDCPuowdPOV/Penb+XmpyfTmC4fdONUVCy8KI8zHvzRYuD9+5T49ni0w8Md6vldpv8wHBC3fPh/PVTL73Pe8Tg+A32rsO3LFGbk4/eFIK9xHfI3VNM8B+8T813Hg0rO9tO+gePjE1YusW2XVZ23WgfSXqhukl6Cmqn5eUJtfna8+33tWXOukzdtNMJXuuUmQwMvcdovl6d8aEb1ep2HqeaKG2fA7VLKhzboa4xj7HN91F8TmxVS4Wx4SvGVfX36hlLg3A9VQYoMNTfZZr3J+Gsq0uuB06ZdmD4ktr+leK8at0p2Hw06WnnqsUjzr6Y2KFu+rB95G74XlEGMDD8x9cfUP/4719U//gGOTD8s0caaseL8oc3AAAA6ismKGuHBsXkszDRGk+yamHQ097E87SYSeNZXJ/L7qe+CmOKSX1hkjqayO61bdN9D8akH0IUE/4OYQz7y/jyCX6XO9lv28+WlYKASna8SAGOtO+lPpr1utvUDIpCTt/m8hzBzCvGgB4vHR9r4dypw47R5nmTOK8MaayG9U2dxHlVXLscrXOpFZybOxnb3gepEDAjnmNxH/NzWLheRJy+2bZToS6AuTEwdxhObNCP4dPfg7a7+d60vsPQvQPJCQw3F5P1tfjhSG3hXYTNsEy/t0Ztf2CjOlg8cvHlQ2r9F65W9xyx/6/LyY3Nu4nk7xgsihAYNgMQX/N9506/bmm2XVaa/ap+HGVK8jGVWWk9BlELHoVYVaYTOJWV7Niuvtz53sKzin87IU5W52AH6cmsB4Yn7eNE7fqkwLAYi10TnkepMp3jV2vZ2QsMy89P+z2RRUn8cYBx+SXqzWaZd6gLLhfet5p/SGBKcIfhy3vVyg/NV8uDAP7kzhvVxWfoeqerd37kRrXyhsuajyw99V2XqZWpR5YW+3qAAsN/9YlN6l98Zrv6J3+3zwsM37mmoe5/nsePAgAAdEWnE5J6uXkL1EivhwxzGYbYfds3gaGdcGdyukN6/7mBghBgpCVCEGDa1qlF7rgUA66U4tqpw632rqMmJCwLCGeT+byqE6RL5ujzA0DPGpxHkmbl4H49Gd96b1rcsMEJDEf3blXr125suucqGz5m3nnFKu+99Wt3m7v+phsYji4/t/Xeaaebu3be8IEVajwRgDUDhdK7C3WpusNwsbrA3BXmvB98t2I3lAV5zdIMZjpXFUw273563elq3rU7VO2b+GYkMHwpGzetsPDUi7LjvaFYTyswNN9fedq5av4t7X0H46wHhkXobcf29O+67WJpHr8z1dulOxXLnHWmXbZHAsOsnNTn1YQN6fQdqnbdb75ioz+mu35OBYFhWdl/n5r/34L2Lrqx/M7ZAQwMv+evv6X+9f+5X/3rD69W3//xh9Xb/v5p9YVNL4gf1gAAAEDP6bfAEAAAAKUGIzB8+SU1vm2VWv6Vjeqg896pbxIm+LU3FY8vfav8vuY+ztAJDP2J6gm18gP5urRUGJAMR5p3A5WEDS8Xj3K0PrxELXlX3v9TLxK+c8+p31zfxG41Ks6wFxP856rlu+xLXgn28xyWg7fbkKRjNUIMXfbepxZnx76ZW5yMA87IA4vtOhar1dL7ocok8iW13XtMajY+9HFuBjx2W/auyr8TztbTd2fdtKPeCZ0Mndq+gzTcr3I4Vjwq8332ebJlgaEJvKahMoAO3+9CcFY3MIz/qKB9K6+wf0BQIzgbz46zGUdvWaLWh9eKsjsMayq9wzAsJw+p0bUr1OJLWo8sNiFtM3TVTldnvHd+dg6uUKu37W0Fn7oMeGD4r//mQfWv/+9I5iH1k598WF14yw61fNNe8YMbAAAA6AkEhgAAAAOlPwPDl/eq5efnE8xveNNbW8GKmUiWAwu3tH13VSow3HadeWzfqaflAd4FX1mllt/ghE22TCcwPLl2sdm+Cy60fdZ3aDW2qsVn5W2e+t7r1HYnCGhu21nZ6y8rNTGy2EzOh99xmJeqO4IqAsOGHNjUUeuuQqeM31TcyVkWzAglDNnaLM392UWpcZmXl9Tmq851wsLFanUx6KRtmdihln/AD1zmXeU8sjZRZjswVAd3qPV33tgMmNKBYTEmO1cebk+oey7Vj8Jc1bpDt7lfL1VLbSi31P4hwKkfurEV1n3l0qhe67V6gWFXVV2/9mbH0gTK71CLN7T5vZwdleB6kl0fxretUTctXawu9kJB/d2ml6rFt7S+i/Pk3q3qpqvmq3nmUaWhM9XbP5QdryEKDF1vvW6LuvXxfeIHOAAAAAAAAAB0S98EhnpCeeUNS9QH3+/eneI442z1Pj2pPGuBYXF34aXqmi+4odLp6p1X+aFh54HhXrX8Pfk6Vt5pJ8uLx5U2Q8Oz1eIN9iCezF4zdxeerhaO2ICg+do7lPf9ZbocXGXX31lgWGxXJ9q9Y3H9FXbZNsOCkyPF3X+XqJUdpAwH77pMvgPVOqN5h1/9x1nOvysRGAbfWfjasy5T97hfpVgSfh5ce7V9nKp1xoXqmg2J9WSlOjCsCmaDcKhZqs8/XaoDw9PVGe+S919KcSxKx9aRVepi0/7r1Zuv3ZG/tmWZbWNZc5vF/jX3v7NvhGXj0tonybue21HcIV12LuhHkV6U14seRTpjxRkTe3eoa+wfNRR0SLjwhjVq9GB5eHlybEd+rX9v8ccg9no2gIHhPdv2qI/e/ZT69S8+mgwMC+ffuF1tePZF8YMcAAAAAAAAAKarbwLD1J1e865cpbaPuRPQsxMY6iBKT2afevlGNWrbe98VS+wdPadn624lPZ0GhsU6XvuBVWqimCx3v99w731q6V2t9Zjvs8vqhHcTTtxp74J6z41q1L3zrLn+aQaGZ5wtBxuRVtjbXmC4Wy1/t11X8P2OVaU1bqoCMFv271Cb95YHGs2y60Y1z27PtEOZRraNNuAx3DsLi1ISGJoi3G34zo+sUNuFc7z3A8PUmEyV8rFalOa58Lrz1XLvcZpuOaRWXiT0TwoMa5V6+0RNbFXrt1RfkKuvX873XxaPs3VLY0IdPFJzjLdV/GM3cddlat6Hlqjld+5Q40Uf9Pgy14tL1cKrrs7e26g27zqkJsI+FuXll9TBXdny+uQawMDw0KFD6ujRo+r48eNq5/4j6tr1e9S5X3tCvWbRWjE0fPXCNWr+qmfUcy8eFz/QAQAAAAAAAKBT/fNI0g1LzHcOzvvQ1eqmtWvUUvtI0jgcmIXAsLHR3rWXT4wX7en1ndy0RL1d133d2Wq+DfM6Cgz1dxGaO3ROVwvXOnfXpAIzN/xz70rTpfm9hqerD97lHHB3GTGcqRkY1g7xikChzcCw2c/X+/2vUdoNDEeX598P94b33qhG7Wty0aGSDfhOW6xWpwKPGuXkzhVqvnM3VviY2WapCgxtGb/zMvXO8G7Dtf7Y6/3A8EK1fIf8OFvZjuZjitNjq7hjN6NDePtqXFoBdfNOXV06Dgyry8lty+wdomdn/Z9emNf83sLM+666T6284Wq15LJLvcC+2O/Nc7gT0fWzOuwtvstSpu/SvVB9cMkaNW7re2XAA8NGo6GmpqbMB/Pew8fV59fsUa/79EYxOPy5JRvN++EHOgAAAAAAAAB0qn8Cw5dfcr73rizIar2XfPxf8Ui/094qv68tdUKwIkQxE9UvqdWX5cu/3T7S0A0MdSkm7E9913Vq80ldP+/PBbcH4UhJONP8zr733JhPnpcFhs7jB4s+haV5Z9VbsnUVt8I5gaH8uM7eCAxboV95UCaV7de+I1/2/BVyCOGVVlCk7xwtu2Owefdn8bjEsNT5jsaXJ9T2Wy6zAXPu7R92vlsvLDUDQ1P2r1GL3+XcsWjC4tb46/3AsHPJsbXrRvVOU8eG8Klyco1aaOq9Q13jnk4dBYYvqe13rVDrdx1yrl8TatR8B2LrO/y8uwJPy/ZpGPq75eBGdc1ly+RQ2b0bt0QxZmc7MDTl5ISaGNuRbf8qtfwq/Zjpc9Xb3e8uvGyNfO4NUWBY2HNoQn3om8+o71uwRgwO//SWHV59AAAAAAAAAOhU/wSGXqkXGE6LG4I5geH64u4d51F/YWBoJv9vWaFGzfslfS0LZ7Zdp97sBhupwND73rt3qAsuv1otuSrkfh+Y08/KcKgHAsPmnZaZIjxtozT7WCdkGCseMVoRKDXvMI0f/6rLxA59x2BwN2dY9m9U17zffXzomeriG3aXP9a0ncBQl2xsrL/q/Dy8vmiFF0T2fmCYGsspi9UF9pikxtb2L9jw+C3Xqe1lgW62n/NzZbFa7R6QTgLDkxvVQnu3ZytYTuy75veSZqRHiZqyWy19V14nPKZF2Xyl+wcRrUd/rt+2V00EjyJt/xwuGTup7dJ/7FE6sG1pTKjxbRvTjwQewsCwsG7XIfXeG7aLoeFvLN2iDk80xOUAAAD63djBCfM9ziu37VdffnhcXX7vLnXJbU+pecu3qbdetwUAZkTqayI6ccY1mwAEpHOlE8+8cEz8+QFA5wY6MHzf8h3BYwtz25fbu/fOv1FtF9433Mn6IkR5zyU2lPAfGxgHhk55eaOdRL8wvmuoNJzZrZZf6YRRqcDQCSRqKx6hueVqG4ykApC5Dwz1IwyLoPPiO9sdrK27O18rBHthGb8h/w5IvX/WJwMO906w+eqeI/blZql3p5j72MjXnnGpefxmZWk3MLRlYssqtTroR3VgWNdMBYbtbWPVWHXPk3k3lN2+5wSL4WNLOwgMT661d6J6Y6pkG/dm+9/28+3ZeSUOw6o6+g6+OgFdVmYlMNyh//hBv64fOXquuviyq9WSG1ap9Wt3qPHsWtu687KiDHFgWLjxsefVmV/aHP2A/DOf2qC2PHdEXAYAAKDffH3z8+o9X3si+pkHAADARWAIdN9AB4apwCI94Z0oRYiS1V9/w/nqgiAFKg0Mm49BXKLWhxPjte/mykoqMMyKDrrM41cvWZzfbbV0hVptHnlY3FVkQ9CDxZ1xZ6qFI9mBrwxAagaGHagVGDp38nmPUq1dWv2vDkRa329X9jjS1ndUJh5Fqotzp1jqLrA8WMyO2UeKO1FrlObxajdMi0vvB4bnqsX6rrhiHFdapRbbR3FKY6u5va+7VK2MQl6nONsfBdSl58shtfLSS9TCG9ao0eZiE2rlB/K2/DFVHoqaMPm0c9X8W5w7TnVI+J75aukDu9VENp5aQfrp2T4sD0DLymwEhs3HK5doXr/MtUsHicK5Vez/IQ4MCxeveEr8QfmOJ/aL9QEAAHqdDgnPv/FJ9UOXrxN/zgEAAAgRGALdR2BoXystTmB4sDFhJuzdUhYYNu9ak+5w61Jg2E45uGmN2l4EJqUBSFYaW9WSkhBmZgPDl9T6K+ydXq+reLxnsuxQ19jA8c2J73ZslubjSN1HRwalsaZ5l1ry7i9bTm5YYu+qysZF6RfStVFmNTBcrFYXQXMF/w6xbgWGnYvGln6srR0Hpd9N6XwXqHiXaen50vruwOY2NcfUO9Q12/KX8lIeGOpHyY6HrxfrPu1qu27nTtbgjueycnLikBrdtEot/8pGc9xnIzAsysmJCXVw11a1/s4bzSNkL3732eoNpn5C+AjiYh8QGBqL798t/rB8zdo9Yn0AAIBe88TeI+p/3va0+ukrN4g/1wDAsPjBReuAgSCN75lEYAh0H4Ghfa20uIGhfckt6cCwddea2Jc5CAzdcnJkcd7m+Sv8iXlddFj4LhueZN58RRy0tB82tMKgqsDQfWRn+i69ijJxn/qgbSM1ForSDHbD760rSmOHuua9dn+cdXWNux3dwPN8tXyXfXk6ZTYCw4P3qfnvPle9893LqsekWLoVGHbvDkM9zvOxFAZ3Tnl5Qq1vBnCnqwtuF/peGhjGY7v5aNPouzcrAkOhNO/Sc//wQAecdl+Lj799+SU1MbZDrb5lmVr8oQvV28+wdTV73GczMEwVHSTq7y5cecPVauEl5zb7GT06lsAwou8olP4Kf9G9u8T6AAAAvWLJyJj60Ssejn6OCZ31d1vVBTfvUB+5e1R9cd24un3bfrVx7EX13IvHxXYBAAAAdI7vMBTebypCoSLYe/cStVIMK0K780n9bcV3dyUm0Oc4MGwGGhet8ifgJzY2H6n52jPOV/PMv09X77xijTroBnf6bku9n+o+UjMrJ+2+LfveMu/7/U67RK3sMBwbv8kGG1nfywPKVrD72svWxHeg7V+jFhfhaRjM6FCmGC9jO+zxX6NuWnq1WnLZheqMYjvOuk5t7yT0dMtsBIbTLt0KDNvdxtQ1wTm2UXBny8t71coPF2Fhyd2jZYFhM5w+Nw+HnbtR4+/eLLaxalwWpfVo03cu321fs8V+n+Gp77pMrRzLau5YpZZeMV+976wzTf3Ymert75+vFt+w1VyjeiEwFEt2bYmuEQSGSad97tFocu2qh8bEugAAAHPp7idfUG9fuiX62cX1tuu2qC+s26OOHm+IbQAAAACYGX0aGO5VN52fT3SXBYbT1QwzmsFeXTpQaPXjVOlxpLrMZGBogqz0YwondtxoggbdphdCHFyjFhZhoQ3HTm66Wr3T1n3tGReqhTesUtvHJtTERL3HIEbFDdm0Zjrzktp+7flOWHiuWpJ81OIhtf4rV6ult6wxId3mXYecNveqzTdcZr9rULcjPF7SLc3vmXy98OhTJ3DSznirOqPYF216e9VjUatKPwSGzuM/xbv0bOl+YNh6JKh7TTi5tri7UArusvd3rlDznTtp3/CBVem7WZv7/1K1MthpEw8U68nvUD147/z8cZvi2Gv19dSL9B8t2Jelkp0r41nb+Vg+Xy0fs687ZWLb1mafm3cNF844W73vQ0vU8ju3qtH98bnUDAw7kQwMT1dnvEvfpdplRQhKYCj6i9ufjibb/m7jc2JdAACA2TZ+aEJ98I6d0c8rhf/2xc3q8nt3qcefOyIuDwAAAGDm9U9guHeV+uC7L1ULr7paLbzorXZy/nS1ZIt9v1mcoO5NwqRzG+bfZcOMia1qebbeJbXdp1Y375I7W12Tyolm9A7DrWqJG2ydcXZzu/zAyw9mJu6an/f7tEvU8p2tgMEEK0WQ2FX2MZETO9TyDzh3RZWGhbpMqHsuddtJSTxe0inbry0eHTpf3SOcDxN3Xuq0JzlTvd3u24svs2PghlXNuw2vKb4Xr2ws1Cm9FBgeXKUucMZU05uKbc2Oa8m2dh4Y7s7GyXy1ODjnFr6/GDv2Dr+ivHxIrf/CheoN4bFtvp73Q4+Td161Mfp+Uq8cWaUubtZvHfNmkKV9YFXrjwMmdqv12+Sxd/B25y7amqq+N9OUiTVqiQkId6jxGoH+zASGM4zAMOl/3xlPwt28dZ9YFwAAYLbc+Njz6tQlG6OfU7Rf+8Jm9bXNz4vLAQAAAJhd/RMYnlyjFoYTx+JjHus9EnFGy8mt6hobrp0qPeKyKDMaGB5SKy/K+5B0xoVq6ZZgAOg7xM46Wy2WwrqXJ9To2hVqyYcudIKhaXpLdgyzpk9m29e8I/CMS72wMlU2X1Xeh1PfdIm6ZkPVGNitlhZBaOpO0JM71MqrrlbL7XfqNe9mrPsoVv3YyKJP2To6Djt6KTAMA+lAVbjVeWD4klp9mb8u1xs+nDiGExNef/zxdmGNcZKX8bsua91tG9CPBb0n/B7BZHlJjd65RF2cfHRoyxvOulAtvGVHeZjZYWkGhrWvK2Vjpzh27X7/ZE1fscE9gWGpP7t1RzQRd8+OA2JdAACAmbbi8f3RzybaKYvXq8X371bHG9P/+QcAAABAd/TRI0n3qnvcu4puWKNGxb73QGCoiw6J3rVEbS4LlQ7ep+abu5SWzUBgqNTETmHS3dKhV+p7BE9OdD4o9LKtR4PW4Owf/d2FZ3zgRrW9zdWL62zncan6sY+bVqibNnXvZAjL6E2L1TUP7J5e6NPFwHBi0432PMq/y679ku2zLfLY2j5WI+xdmt+d17yLt1m2qqXmnLhM3ZNIhZp9d5hH027bW/rdmGEZXX6heudHVrQ93qJH6hptjLceKsVxeOfSNgJDHZrqZT4Sht/Vx25aZcuyxHr7t8xEYKi994Ynokm58RePi3UBAABmyqonX4h+JtEuuvUp9cTzR8VlAAAAAMydPv0Owz4pM3BHEIVCoVAGo8xUYPjC0Un15msf8ybm/sPH1ot1AQAAZsL9Tx/0fhbRXn/Vo+qb218Q6wMAAACYewSGFAqFQqHMQZmpwFB7dM9h9Z8+8bA3SfeuZY+LdQEAALppzegh72cQTYeFj40fFusDAAAA6A0EhhQKhUKhzEGZycBQu/Gx56PJug/f9YxYFwAAoBtGCAsBAACAvkVgSKFQKBTKHJSZDgy1j923O5q0+8zImFgXAABgOh4ZOxz93EFYCAAAAPQPAkMKhUKhUOagzEZgqP3xTU9Gk3fLN+0V6wIAAHRisjGlvvcj/s8bhIUAAABAfyEwpFAoFAplDspsBYYvHJ1UZ35pszeB9+NXPKw27WECDwAAdMcZ12zyftYgLAQAAAD6D4EhhUKhUChzUGYrMNTW7TqkfuTj672JvN/6ylaxLgAAQDsuvGWH9zPGqxasUffsOCDWBQAAANC7CAwpFAqFQpmDMpuBofbVR/Z6k3na/1n1jFgXAACgjqvX7ol+vvj8mj1iXQAAAAC9jcCQQqFQKJQ5KLMdGGo6IAwn9b626XmxLgAAQJnH9x5R/zF4gsEltz0l1gUAAADQ+wgMKRQKhUKZgzIXgaH2rmWPexN7r71yg9q294hYFwAAIOWCm/1Hkf7G0i1qojE7P88AAAAA6D4CQwqFQqFQ5qDMVWD4xPNH1es+vdGb4Dt72TaxLgAAgOTWrfu8nyVes2it2vjsi2JdAAAAAP2BwJBCoVAolDkocxUYajcHk3zagntGxboAAAChN33pMe/niI/ft1usBwAAAKB/dC8wfInAkEKhUCiUumUuA0Pt8vt2eRN92i1b94l1AQAACp94YLf388Obr31MrAcAAACgv3QtMHx5C4EhhUKhUCh1y1wHhtp5X9/uTfidfvUmdeDYpFgXAADg8b1H1H/8+Hrv54c7ntgv1gUAAADQX7oWGO67hcCQQqFQKJS6pRcCw7FDE+qXP/+oN+n3V3fuFOsCAAD8yc07vJ8b/uL2p8V6AAAAAPpP1wLDsa8RGFIoFAqFUrf0QmCo3Sp8n+Ht27hTAAAA+FY+sd/7eeHnl2w0f3wk1QUAAADQf7jDkEKhUCiUOSgvvvhiTwSG2qV37PQmAH/tC5vVkeMNsS4AABhOb1+6xft54dr142I9AAAAAP2J7zCkUCgUCmWWyz/8wz/0VGB4aKKh3viFzd4k4P9Z9YxYFwAADJ+r1+7xfk5423VbxHoAAAAA+lfXAkP1EoEhhUKhUCh1ysmTJ3sqMNTCx4xpq558QawLAACGx/iLx9XPfXqj9zPCzVv2iXUBAAAA9K/uBYaKwJBCoVAolDrl2LFjJjDU/+2VwFDTdxW6k4FvuvYxNdmY+34BAIC586Fv+j8f/N7fPyHWAwAAANDfCAwpFAqFQpnF8p3vfEcdOHBAHT582ASGk5OTPRMYHpucUr/+pce8ScGP3D0q1gUAAINv7a5D6vs+ssb72eD+pw+KdQEAAAD0NwJDCoVCoVBmseig8ODBg+rIkSNqYmLCBIY6LOyFwFC768kXvElB7VtPHRDrAgCAwXbu157wfia46NanxHoAAAAA+h+BIYVCoVAos1T0dxa+8MIL6tChQz31/YUhfVehOzn4li8/piZ7rI8AAGBmrXjc/37jH1y0Tm0ZPyLWBQAAAND/CAwpFAqFQpnhoh9Dqr+zcN++febuwuJxpL0aGE5NnVBv+fIWb5Lww3c9I9YFAACD6V3LHvd+Fvibu3hMOQAAADDICAwpFAqFQpmB8vLLL5sgUIeDe/fuNWGh/u5CHRzquwt78XGkrnufOuBNEmort+0X6wIAgMES3l34k598WI0dnBDrAsDY9eepV85bpsaE9wAAQP/oamC4Z88eBQDAsBsfHzeee+459fzzzzfDQv0oUve7C3vx7kLXwnv8R5P+6jWb1IGjk2JdAAAwOMK7Cy+/d5dYr6+NLFCvfMUCNSK9V5MJSV5xilo0Ir9fR97GeWrZqPx+bxpXy+adMvMBkTlG4f5dpxaF+2t0mTqnj/bhyMJs3y1cJ7ynt616POnlz7l+3H+95j4YWRjX8fqj93knx9Wsv8a5UNl+vX2AwWOuhc3zIr/GhOPArzMDos8FqR/5GI3OQQAYEF0NDPUdFAAADDsdEhZBof7OQv0YUn1noQ4Lw0eR9nJgqL31Ov/RpP/r9qfFegAAYDCEdxf+7Kc2qucPHxfr9q98Eng6E77dCAuLkEW3M6OT4F03l4Gh8HpbgeFcT/YLgWehZlgnBYZiiCiJApEgoKvZB0mdMGdsdF0+dpLHi8BwWE03MCyuybUkxvjYaHYOedcXvx/udd/UDZYHgEHQ1cBw//79CgCAYaXDwYK+o1AHhfquQv1Y0uIxpP0UFmrSo0lv2Py8WBcAAPS/8O7CTzywW6zXP2y45U4W1yaHGvUmpqsCrDwYySe/CUlEYTDo0iFhMelv6tUMDG1IOxeBobmTz4wNX7F9qffDgCQKB+1+SvPvpDXrsW3WGsvFfnYD7nYFAY3bBx/nwrDyw0A5MEyPG7t8nbBbCsUrz6GU6d2lDgC9qKuBoZ4UBQBgGOk7CF06JNR3FOqgUN9VGD6GtB/CwkL4aNJf+MwjajffYwQAwMAJ7y7Un/kHjw3a48jzQKLTwMhMWJdMSrt3oEjv54Q79NoJvYaFncSvDI9MvZoT93McGPrrdUIRNwB1tAISOfg+5/pl5QGb2d5g3zRfy9uMwsc6oYvRhXCvZgg5F8cLsyQK6/R1MAwM7R9YRPVa7Uw7MKw97i3p3AKAAdDVwFBPigIAMOx0QFiEhPqOQq1fw8JC+GjSC27eIdYDAAD9K7y7cMnImFivn5kAppNJ3iLY0OGN/nc4uVy8XznpbCe+pXpm4jwRGtpJ9UUjrYnz5mR6GLqIfQgCJ12n2WZRx7Yd3sFj22/Vs20562nuV9umt4+71b9m222y68v76CuCqFT/8wA4PiamfrQdwTYEy+ll5MCw+G+rbsGsxzseeV233802zX4O+mq2p43xruuLx0fSbmBYp367bWJQtO4wDM+j1jnQGu96nAiBobtMmXCMN8e9vQZW0XXN+dbGuQUAfaKrgWExKQoAwLDTAWERErpBYT+GhZr0aNJrH3YnPAAAQD8L7y58w1WPqqPHG2LdftXOhLIfWMQhRiswKiaYE0GfqwjOnACo1Y6tYwOrKDBpBlnBemybrSDKTrZ7E+K2j+5rTojXWpet13FgGKxD62r/ZPlxlSfuzXtCu63+5FL9z9uOj2103ITtCpfVy/jrzZdZdH3Wp3kL1KJMuA3RMs5+EbchPHZOANjcxozZp80xVUPYrhaNiwqj42qkOAel9oz4XMNwMOdLc1zYcyMbB+7rrfNBjxMhMAzOX1FxTpjxG57bcbuh2usBgD7V1cCwmBQFAAB+SNivQaErfDTpj13xsNo8flisCwAA+kt4d+Hn1+wR6/WtVOAWqRlYNIObqvZyeXgUt2tCnGjy2QZobqhi+y8FTtHypm6rX/m6437GfRLWq0XBULzePIwK19Ht/snEoCz1nt0WMWxL9iF+PTxucr18fxbr0stIx6/YPtNGsK/CZcauX6DOyZY55/p13rL5dsX9bIYjzdf8dU5L8xwoER775nJCX42a5x8Gjhn/zXO1NU7d15vngzSGorFeTjrf8vGXGps5eTkAGBxdDQzDiVEAAIad9OHbz35jqf9o0t+9fptYDwAA9I/w7sLTr96kGoP0c0wzoLKBWA1yYOEs70wYmwlk/VpZaJWYYC57L2/X3nVmtiHoVyL8Kl7P6yZCOy1q025fuB1ee1rcptmO8C6/rvdP0gqYdB/CuqZftQPD+A6//BjEAYJ/3FLbYF93wg4zTgJun/3+5su3+ppta/aertMMTdy29b/D0CT8f9tm+T6tyRyfdLhSHazUPx/L1oPB0LyOZtzH9JrXzTh3xq45j8Mx0c540qQxVbON0nENAP2tq4GhtAIAADA4Hho9pH7go2u9ScWP379brAsAAPpDeHfhF9cFAU8/MxPLRRCkJ4Orgod8wtgNVFoT2WGgVDG5XGNS2Q+eSkjhmQ2/ovVaedDkh1aeqE27PWFdu55WPdum0+88DJMDw7Bfhfb7F8uPjV2vECL4AVxRZ4YCQ2fbPLaeXsZfrxOAFK95+zp/v1hGL69fj9oxy7T67r1fGRhWBSTxPimYfVD1vnRchXMsVzIWMLjseW40j70eI/l51woMW6+FY757nHXY18LzzfSnzjUbAPoUgSEAAGjLkpExb1Lxez/ykPrWUwfEugAAoLeFdxf+l8/ruwvluv0vngyOpcIMXx6WJNqqEXQVTDt1Jp+lNr1wKcWGMNI6ojbzbY8Cm2g9cZtieNT1/oXy/nrhmVmmOC5523G4FryWEfufaSswrAi69DL+evPlwu1rBSTu+9m/F+br89tJb6NZTu8Pb9+G6ywZ76adVCiTGCsOs4+k980xSu3rmQiB0A9a417/vx5f+XnXfN0dy2VjM/mefL5Vic9bABhsBIYAAKBtv3/DE97k4plfekwdOd4Q6wIAgN4V3l34uUH77kKPDTlqkCeV8wnn4n09kS0HT1WhZIupL4VlITE8s/0pCW20vE/xBHr+uttmor1o3bae0295Hd3uny8VMLWOixAothkY5tseHs94+1N9cel1+OvN20ltX+p9rx27PXo/RbL+jRRhS3P5sM3OAsN8f5WN83w94X5u7rtwTJh1ue1V7RsMmmYwqP/fGXvF6964d0PnsnOgkjPm7HWuvvrXeQDoJwSGAACgbU/uO6p+5lMbvAnGv7xjp1gXAAD0pvDuwtdf9ag6Ojl438Hc0rprRX5fkwOUPBAKX3fqFpPNFeFYyAQvHQeGrde9YEZPoLttFhPqbt+cyXG3zXg78230X7OhT2VgmGmnf+5rif41pfaHRzqWdnuC45Tsf1Hf6Vuxj/zjFtfL91NrvHmBR/P9sm2Q+i+1k+aFMEa4TtvvpHifFNtf3od8PVEdc6zDczDvQ7hvxkbycVF+jDEovLGqz297LuWvL8jGiB6LrfF6zvXLsn/H1/N4zBcqzjdnne7r8vmm+0FgCGAwERgCAICOLHt0rzfJqH31kefEugAAoPeEdxfqx45L9QZHnUneNieCm8GWFDZVM0GVMEkdKQvImn2wpPaKUM6tk2gzD88K2XbZZVv18ol3dz35Mol90En/9IR/aptt3arQLA+2hGPp9Kdoo7T/Qd/0MvJxa4UZOX/d/n5tKQ0whP7rdqq2PSeEdnbbW6/lfRb7YLbb3yf1wsJMou9meXe/iceyfD9iMLlBnzvGkwGgMD5LxzOBIQDUQmAIAAA69he3P+1NNP7YFQ+rR8cOi3UBAEDvCO8u/IXPPKIOHRv0x4snJnmDQEgMtBxFaGKId7LUJwdPs8SGR8kJ9B5UFlhJgVwvbVscPAQBhj0ertR2Sq83g1y3DXdsNY+3DeTaHbuJEFCT9r0csvive+eSy+nbnJ4jmDXNYNCMs1YQmAoMzevuuCiu48lxPf3A0BvnjEkAA4rAEAAAdOzQREP9+pce8yYc/8ffbhXrAgCA3hHeXfjJ1c+K9aDZgMWSw5rOzGkY0gyQhPd6UB4ucVdPp/RYc4+1F35UaTdcBOpy/mBDX1vDcRpef11FvSJ4Lr+WVQSGCbo/3bzmA0CvIzAEAADT8uAzB9VrPrrWm3T8qzv5PkMAAHpVeHfhz356o9p/ZFKsiwHWZ4EhAAAAZhaBIQAAmLZr1u7xJh41vs8QAIDeFN5d+LH7dov1MOAIDAEAAOAgMAQAAF3x5yue8iYff+Cja9XdOw6IdQEAwNz4+ubnvc/rn/rkBjX+4nGxLgAAAIDhQWAIAAC6Qvo+Q/2Isy3jR8T6AABg9p35xc3eZ/Vl39ol1gMAAAAwXAgMAQBA16zbdUj96OL13kTkf/3iZrEuAACYXZ9+8FnvM/oXP/OI2nuYuwsBAAAAEBgCAIAuu/Ex/1Fn2tnLtol1AQDA7Bg9cMw8ftT9fL7u4XGxLgAAAIDhQ2AIAAC67lPBHQzahbfsEOsCAICZ95d37PQ+l8++nj/mAQAAANBCYAgAAGbE/7r9aW9iUvso35MEAMCsGxk9FH0mr37moFgXAPqdvqMa6HXS2AWAuUZgCAAAZszvXr8tmqBc8fh+sS4AAJgZ7/naE95n8Ye++YxYby7sOjCh7tz+gvrU6mfV+7/xpHrLlx9T/+2Lm9XpV29Sr7/qUfXzSzaqn75yg/rxKx5W/+Fj69QPfHSt+rcL1njbAwBAP/nJT24QPxMBYK4RGAIAgBn1K1dvin5B2sVfVAIAMCu+vtn/buFf/Mwjau/h42LdmXbvUwfU59bsURfd+pR687WPqR/+2DqvbwAADAMCQwC9isAQAADMqMnGlPoPH1vv/YKk7w6Q6gIAgO4684ubvc/g6x4eF+vNhMMTDfW1Tc+rP/j6dvVDlxMOAgCgERgC6FUEhgAAYMZtf/5o9EvSaZ97VKwLAAC6Y9G9u7zP3rOv3ybW66an9h9V16zdo87J1vX/XbbWW39dr1qwRr3mo2vVj3x8vfqJTzysfuZTG9QvfOYR87PDGddsUr/+pcfUW6/bAgARffeydF3R/vCmJ4FZJ41FAkMAvYrAEAAAzIpVT74Q/aKkf6mX6gIAgOlZM3pIvXqh/11/q585KNbthm9s2ad+56uPq+/9iP9ZX0aHgjr8+/MVT5mQ8cGsf4cmGmL7AAAAAGYWgSEAAJg1X1y3J5osJDQEMKtGFqhXzlumxqT3+tI6tegVp6hzrhceMzm6TJ2Tek+i983CdfJ7LtvuohHhvbq60QZK6fDO/bz9yD2jYr3p+uoje9Xbss9yd10p+nuNF2b90OHik/uOiu0BAAAAmBsEhgAAYFZdHjweTSM0nCY9yd/lifeRhadkbS5QI8J7dYxdf96AhTIImWPcThjVVXlIFo5RPW6r+jOWnS86qKo/PsfVsnnt1K/BnrPJvla970kHhvkxOk8tG/VfTymOaXwtCdbRxcCwneuM7l+tfUIYqT770Jj3Ofumax8z3yks1e3UtevH1a99wf9+xJD+zmIdXOr+7HzhmNgOAAAAgN5AYAgAAGbd59b4E5maDg2npuT6KDfdcC9iJ9vrhRWy7gSGRSg0PXW2I9+Hgk62wYY97QQ1/aj3AkNnvFTdJddOIGfriuFT81inxeuw/SzpoxmPtcdeEOYFr9e6Y9AhXU+i4LFbgVwHwajZr1XbNOSB4ZbnjqhTFq/3PmP1Y8Glup24acs+85nttu/6qSs3mEeM3rD5eXXw2KTYBgAAAIDeQ2AIAADmxFcfeS6aZNQTkIeO8d1FKUVA0xV6wr15h08XBBP4VYFh6bZMO2i0d4SZ9spDu2ZQmFhns59t9MkNH7sdphX9GeY7p3JFeBQH5d4x62iMu226Y6klOq5SQBW95gRegrr14rGY1w/7lAzBQ4n2Wue0vA9Siu0oPcfb5O7XWufkkAeG7/v6du+z9a9XPSPWa9e9Tx1Q85Zv89p2nXHNJnMn4b4jhIQAAABAPyIwBAAAc+brm5+PJhx1aDj+4nGxPmLS3UDTUnY3VZU27rbKJ/3jfpvtaSOci7lhS9l+KUKQOncBFnVr7OcioFq4IO/HtLYlVoRAwxqEtBTHWT4menyds3Bdct/n46/62Efj1IxxYTnp9URgWBU2mnWKd9C5QV5JiKfHXM3ALHW+mf2XvW62u9a21WSXm3aQrvs0LzsuWZ/yYxTsgzLivh0cSzf4f4zzxi9sVocnpveHOE/tO6ouvGWH165LP3L0a5ueF5cFAAAA0D8IDAEAwJySQkP9XUtP7T8q1oejW5PvTSXBmA0D6wYEUdAShCXx+7lpBYZ2f5hQoKKNPHirExYW7L6paLcIL/R+molwj8CwUB4YVsmPU8Xxj4KyROCXGht1l3fDN/PvVL/cwNB5PboOJOoJqs83u22JdbY9Dtu8jnSs0/71uY3Pvqj+48f9R5He9vh+sW5d+nsKX3vlBq/Ngv6s/lr2GS4tBwAAAKD/EBgCAIA5J4WGv3L1JvXI2GGxPnJ5eKQDkyI8qSc5iW4n88UAss2J/lbfitf8sKTbgWER1CX770qECUUYl8v6ZrbZ6WPlPggCV1s/FdwU65PaK7bH319F3xzCvvK3I5fa1njdxViKj03Rh2KZsI85f/lmX4J+Rn0sOebRtpu6Qj/1/q45dvI2ywLD4liWMOtKHHNL2jfR+HTGo9kvyW2w2xyMp+g4RPshsd5UGFjHXASGbRzfYQwMjzem1Ju+9Jj3OfrBO3aKdevY+twRdd4N/qNNC7/02UfUNWv3iMsBAAAA6F8EhgAAoCdIoeEpi9erLz8cTnLDaHdCvBlkxEFQLgg+Qm1O9OeBkNtWHloUy+chR7yu8sBE4gY7FXeMWfE6hG0X95cc2DQVyzTft/UT+7QIzaR9GoZAUWhWcLfDjgmxnubWjfoavJ4J+5X3t7WPo6DKaG3zMrfPzXUX70sS40GqO+88u63FMu44kPe3K+979Xgx9Wzf438vUIv0Ot39Wirf9nRgmL9v/iu2afedd8zc7Q7fyxXHKR5ndlm7jL+v7b5xxkM7ktcJ217y/RKt/tU4z4cwMLzgZv+Rob+xdIs6eryzR5F+bs0e9aPZ56/bnvZDl69Tl9+3Sx08xncUAgAAAIOIwBAAAPQMKTTU/nzFU+qFo0xQttiJ/ppBRREYlAYpVRP5bU7055P77vqKMCT//7xPiYCodgDjbNs0Qpu8jTCEkPZx+X4vAg13HxX9i+/ukusXUsull7Fhkhb2zwkSW+0V9f1jkO//PIzz123rO23LfXT6IQQ7Rf9T2+UGXs1jG7bjBaPBGCoJPF3yMY+ZenabU//2x5TdfiG48+s5r4fhlt2GqJ7Utl7Wfl/mOdev8wLA5DJNfmBYqLtvOpG3na2zDqnPzrEvO77RPh1wn3hgt/eZ+eqFa8wdglLdMvqRpu9evs1rq3DO9dvUxrEXxeUAAAAADAYCQwAA0FN0aPiTn3w4mqw845pN6q4nXxCXGTbNSfcwGIrYQKCyrg0VphMoBvLgyV1nvo5i+XwbuhcY1g4GoiBBDk1S4WC6f3Yfhu8VAYewTBGSSX0vtisVrEXLFEFZat8J7+dtucFQa19E22m3w+2P3MdiLAl9LPaFGF6F+681dsVjW7QljVn9XtbOyGgYuLXkfa8ZGJr1CIq+eueG3Y6SbawMDDNy/+Lldb3izsT8df3v1nJuO/qY+vtSHvt1900n6rVdtg8zNY6vtE8H1a1b90Wflyu3tf+9hZ944Fn17xeti9rSdxUuGRkTlwEAAAAwWAgMAQBAz3l875HkXQ6L798tLjM0iuBHcwMdQT45XzLxbhUhVDN8cddRQxSAiGFbHgIUE/h533ohMIxDmJwcpqT6V/Qj2Y4QkhT7Xep7qr3UMmVt5WwI4+zzaB3Ovsnfk4Onok25j/F6wvrliuVsO8mxkF5PqN56W9x9aJa1fUj9u9j3acV+K/os84+dreuNv/y11v7W/6+3P3w9Ud+c1+7+qh8YVm9jLj3+cnk7FcfMjsOq65bW7rEtxPuqPy1/dG/0GfmpB58V66bc//RB9T/+dmvUjsZdhQAAAMBwITAEAAA964oHdqvv/Ug8ifl7f/+E2v78UXGZwdYKAMzEuw4s2gz3moogxi5/zjw98V4ykW/rVQUCubyf3oR/ENTlE/3x+prbFbyeUgQG9fqVqR0YCtuQCFhaoWC5cB1FCCP1vdiuusuUtZUr+ujs8yCY8Y6JfS9fv7Bss37YR7vfhGNb1C/nrz89FtLrqSPvSxzihkw92wf53+H4kcZNIaxrRWPSis45f3l9zPN/y+3m2+jun3D8yuNZ2jeV52VqGzx2fWXtaN7YE94321ty7IprongMBsdH7h6NPhvffO1jYl3Jsckp9X+FNrQf/hh3FQIAAADDiMAQAAD0tG89dUCd+aXN0YTmT39qg/r7TXvFZQaVmbS3k+CVE/iZODAIOBPzlXXbCQyl8CB4LbW+Otvlytup2S8tCiMSAY8UOpjXhKDCtmnql/K312xr9rrU92K7wtAktUxZWzm7nVKAZF4rC5PkfST3UVpPWf2EYp8mx0J6PflxEl535H3pQmAYjYnEeHLei7ZfOl+MMGBzl9d/NLDMbqPQbup89for90faN5XnZXIbHNG5l1BVz26b/L7d/2V9HQDn37g9+kx81cI1Yl3Jbdv2q//6xfhzVZv390+oR8cOi8sBAAAAGGwEhgAAoOcdnmioD6x8WpzcvOjWp9SmPcM3uVknWMsn/tPBiWnDBhtVdZMBhCQKUTJBoJBaX53tcuXt1OyXEQZjQkCi+5r1YZkJ4Yo+JsKeTNGHdBBSBHN+P4uQL16uVT98r1gm2l57fJL7LvF+a//F25evK9v+xLGXt9sGNtJYquqjp2gnGEeFoq3UGEotZ0XHPKHYRpG4HbbfXQkMM9l2npO1ZdaTrBe22xo/Sabvcn+kfVN5XpZtg1V3nxfHNtVWc1xG7xXb7a9Drzfa533sd6+PH9f9k5/cINYNPbH3iLp4xVPR8tqPXfGwunrtHnE5AAAAAMOBwBAAAPQN/X1NP/OpDdFE57+7bK269I6dase+4XlMaeUEfiafoJcm1mOVdSsm8V1i30yg0JrIT62vzna58nbq9auQLxOHCs0wpeiXDUGK1+XQoSLYsprtu0FSM/Tyl80DEXmdxXtxX4p+ZMR9n78X7Sf7Xv5I2mAbTP/OU4sW6vfiY1Vsk9+Xoh/SWHKCrOgY5++5/WvtB6lfxXvheuz6xcCuRRoDElPP9lX694jdB1XyfSQHdHXCNiNZL9FuimlHb7u8nLRv3DFZJr0N9rhEx11Qeq1JH9+83+Fy+k5M6fX+s+/IcfUbS7dEn3+nX71JrO86cHRSffRbu9R/+Nj6aHntvK9vV48/d0RcFgAAAMDwIDAEAAB95cl9R9Xvf+0JcdLzRz6+3nyv09ihCXHZQVInWMsn0KXgJlZZt25gWARQYijSCiFS66uzXS4p3KjWRnhRpQivqtqy+8XfZtuPyAK1zIYfcpjj1HXX21yHTA6UnD6E2+C2J2xf0Re/3aK9xFiq6KM/vlL7JzPvPGF/ZmqO07rjxoxHG06ZZex+cP/tL2P7LAaW+XvyuVH/3IrrJdqtkmhP2jeV52XFNhRjpXIbM2XHJtVO8XpqH5S12Q+2PndEvfEL8SNEf+srW8X6ri+tH1f/+apHomW11165QX354TbHDQAAAICBRWAIAAD60hfW7VGnfe7R5CTo4vt3q4PHJsVlB0GdYM3USQU3gXxCvaRuzSAmuU6zfGvCvpjgF1VsV0txx1q9bfQUwVXtdUlad8zVCWvyfZMK2Ar5tpQFIEU7RtR/5y6+pvKgRO6XVr59ch+L7Sk7Ju30Ma6br09eT90xXy9AytdRjHmzjN3f7r+lZWYkMAzOoZZEuxWkfVAc09Z+9pfpSHGuVdz1WciPobSdxVhwjm/RttR+EeZ7qsdGr1kyMqZ+6pPxnfV/dNOTYv3CrY/vE+9ILPzJzTvUU/uH5658AAAAANUIDAEAQN86eryhPv3gs+rnPr1RnBD9xc8+oq56aEw1pqbE5fuZmVQPAwt38tyqO+mfBwULmt9X1zY9WV8SKob9ba7PqSPVc7lhhqsyaEkqQqf0firrD3pMFEy1jm+79HhIjVHNvNdhYCitTysfx0JY1lQdGOYhXEgOC/N+FH2dbsDWZjtl4WLiPXnbMlEbZcem99yydZ9687WPiZ9t//vOneIy2t9tfK40KPzNv92q7njiBXFZAAAAAMONwBAAAPQ9/d1Oi+7dpX7iEw+LE6S/es0m9dHs/Y3Pviguj3SAV58NNJqT8fGdYW4gklrf3AR06SCn8zASs64ksO6EHqN+W/6YltdTFkrl70XBng3C3PbqBHzdlW9buE1FiNiuvJ2KsDD1xwmp878bx9e0Md0QdGZtHHtRnX/jdvGzTP9xjA4Ew2WeP3zc/PHMf/m8fNe99gufeUR9cd2eaFkAAAAAKBAYAgCAgbHrwDE1/65n1A9dvk6cMNXedt0W9akHn1Xb9h4R2wAATJcNV7k7t7YXjk6q/3v3qPr+y9aKn11/essO8xlX1Nd/KHPjY8+ri1c8JT6ytPDvsvY+nH0u6lDRXR8AAAAAhAgMAQDAwHli7xH1gZVPq1ctWCNOoBZ+56uPm+9C3HVgQmwHAICZtP35o+bR2f/5s4+In1Ovv+pR9bVNz5u6W8aPqM+tGVNnX79NvXph+efbf/rEw+rSO3aqDdxZDwAAAKAmAkMAADCw9KPdLrntqeSjSgs/8NG16vdveEJ99ZG96sl9R8W2AADohiIk/K2vPC5+JhX+4van1Q2bnzd/APOLn5EDxdB///Jj6uq1e8wdiNK6AQAAACCFwBAAAAw8/ai3pRueU+9aVj45W9DfE/Xu5dvUwntG1a1b96lnD3IHIgCgczok/OTqZ9Wvf+kx8XOn8G8XrDF3B/74FeV/6OL60cXr1fu/8aT65vYXxHUDAAAAQB0EhgAAYKg8uuewCQJ/+XOPihOvKUWIuPj+3eruHQfUwWOTYvsAgOFxdLKhtj1/NPtceEF9ZeNz6ooHdqsP3rFT/cHXt6t3/N1W9cYvbFY/+Yn0dwx26mc+tcHceXjr4/vUixMNsW8AAAAA0A4CQwAAMLRWPL7f3JXxQ5evEydkq7xm0Vr1U1duMOHjW778mPrd67epP87a++DKp9Vl39qlPvvQmPrqI8+p27L13PvUAQDAgPg3wmfCTPulzz6i/uauUbVm9JD4mQYAAAAA00FgCAAAhp5+5Ojn1+xR59+4XZ3W5p2HAAB006sXrFGnX/OouuAbT6olI2Pq7idfUOOHeDQ2AAAAgJlFYAgAABAYf/G4uuOJF9TH79+tfv9rT6hf/Mwj4qQuAAAz5Sc+8bB663Vb1CceeFZt2nNY/LwCAAAAgG4hMAQAAKhh/5FJ892Fn1z9rDrvhu3qv31xs3k83I9/4mH1/122VpzsBQAMttl8NOlrr9yg/nzFU+rGx543f9gifVYBAAAAQKcIDAEAALrg2OSUmcB9Yu8RtXbXIbXqyRfU1x97Xl27flxdufpZtfCeUQDAgCk+Ayayz4C9h4+rHfuOqg3Pvmi+5/Dye3ep3/rKVvUDH52ZPyo56++2mnXc//RB7/MIAAAAADpBYAgAAAAAwAwaGT2kPv3gs+o9X3tC/dQnN4gBYOHfLlij/v3l68T3Ut7wuUfV5fftUk/uOyquHwAAtGlkgXrlKxaoEek9ABhQBIYAAAAAAMwi/VjR996wXX3fgjViAKjpYPH/rHpGXbN2jzr/xu3qRxevF+u59COy3/+NJ9U3t78grheOHpkIHrv+vKwf56llo/L7vWlcLZt3inrlvGVqTHy/S8wxOkUtGnFfX6cWhftrdJk6p9/2od22ePtqMNtbMXZ1+2XHJ7XPqpYz8uN/zvXj8Xt9dixGFupjMMPXAbNPwv2V78N4bLc3HvL+a3X3+QyeuyXXVNPPheui113mWhjVqblPsnVH49Hrj3DdqCVfvzjWPdXt19kHGEDBNVWPA3GszuTnqXBdjvthrw2MUWQIDAEAAAAAmAPb9h5RH7tvtzr96k1iAKjp783d+twRU18/8nrx/bvVbyzdItZ1/fcvP2Yeix2uE1pJ4DGbbJBgJvz7apJuBkMHl5nwF8KC8PW2Qqq6AUC32X1WHO/phFRme6cXGCbDizoT1yXrl0Of3mX2w3SORR32PI/GXPR6zXDM6uyPDWbu3BWDEKNeWCeNnfrjKd53/hiv1wdRrXNiXI2Y45G+tiTPOQy2YPyI50nZGLPXidZnR5nEGM/G51hwvfH6oddfvKfrustiKBEYAgAAAAAwx257fL/645ueFMM/fXfh59bs8eqPHjim/m7jc+qc67eJyxR0cPj1zc97yw6XMKhpR4cTzLXkE9z5BHJ7QcHQsJOY4n7Rk5/FBKupV/NYpcKb2WT6G4RUdlslRV/zgEiuUy7cN054YvaH0xfdj2Q4kjqXivbT59qc7u+5Vjrm9LGw+9/Wq3sdMAFUVZAVmYHAMDV2i3AsObb9cyAKB+3+kJfVgnHtnleVy2rF8vZa3BHpPA5eswgMh1RwTZUCQzP2U+ekGcvhNVziXNeL12qdB5I668MgIzAEAAAAAKBH3LJ1n/ovn5fvOHz38m1q8/jhaJn7nz6o/uTmHeb7D6XltHcte1ytepJHlRaTw3MbYAiT9maimUk6jw0aKgOUkkn6iJ1AndPjL/U3mFQuiHejmG2o2N5Ee5oXzIRt2eWW6XCjmDxutpOPW/94OJPUetkoEMmXmdvzbY7VHXOmXv1rQE8FhkF7rTGm1ydsk17GjjuzHcVYKyzMxmDpuBHCEWd8xgGMVD+lG2PW7udwu0LdPA7oLfa8d4+3Hpv+NV0eJ941tvZ1IRUY1vxsbGrnXMGgIjAEAAAAAKCHvHB0Un1w5dNi8PfzSzaq1TsPiss9Nn5Yfeibz6gfu+JhcVnt/BufNI82lZYfBvnkdLsTaN2kJ+OyPkgTxWYSPTFRZ97TE4l2eXdSMZyYFCehg4lJXafZZlHHth2GPrb9Vj3blrOe5n61bXr7uFv9a7bdJrs+KZgoJm5T/TfBg3BMTP1oO8LJX2e5cB+4im0V9oteTxRclLXlEtorlm22mWjL2+fNdvLta40DrZhcTk0y58uE6zvn+nXNfZWePJfPBf84Zscp3KainWj78/Ht7s/mcS/qNMeccJ51q3+JfV7N9lNa3tlWf/3h8ZL2TbBd0rgJzz33GiGM3SIw9MJpl2nP2e8Z029b118uPxbedph9IO9/WWp8SvL94Y6TKm7fU+rUwQByzo/w3Cxeb433fOzFYz1YLikY42ZZfZ6F164UXbedcwWDisAQAAAAAIAelLrb8JTF69W9Tx0Ql9GePTihFt4zqn7iE+ng8CPZ+5ONKXH5QZWHP9IkWcyfZO+SYuLPmTQ2E4juZHszsLD/H7wuTwhWhSU2/HBfcyYhW+uy9cJJbVu3VS9eR3Mi1Ftvpqv9k+XH1Q8fvPeEdsMwINX/vO148jQ6bsJ2lS4b9lcIXYq6UXBhtkHe3qaS9vR26jab2+y2FS7n/X++jf7xsJPL12f1Fi5Qi6J1Bsskj2ud/WfreNtux47dplRbbl13f0bHInWedbV/CWbd8Xhpvecfc9P3YBt1n9z9muxjczn7/+45nx2jZe6xsfuk1a7dpmIZb4zkzHrNXYJZfxb6fZKXae2n8Ppj2gra984B27/Wsk5blfx9movHSblxNTZSjGupvZw5XuG1FYMvGOt6HJix5byeny96bOTno3e+mLGeuC549LjV9fI2/PErtBsy51F6/GK4EBgCAAAAANCjUncbvmrhmtLQUKsKDt907WPD85jS5qRy1cRbPllcOrHWgXziPm5XmvRvTni7k8u2/9IkYLS8qdvazjg0cF8vCQIKNuRp1YvXmwcv4Tq63T9Z2UR89J7dljAMkPuf7lt43OR6UvBg93E4Mav3STQO8vWEffXCkhShPdPHeTrUc9oM2wqWy5cp/l+adNbb09ru+FgEy9j9Hx6vWvvPjBthPNjXW/spMe6E45Ef92D7gzpad/sn8/d19XvhGJSF2xzsm8T50JIvLx8vu9/09gX9MO8Xy5h1BPsuXCb7/3Pm5cv4Yz5ff7RPhXPAW+e02G0uJZ1/+b5N7cv43MBQCMZ6c3w7r7fGrjTe9WvhtaeEdL6J1+6A7o84rjGMCAwBAAAAAOhxH7tvtxj6VYWGWlVw+NernlGHJxrisgPBTITpCbQ6E8G51sRa/WVEdgI8nFAvlL0XTcpn7XkTfqnJfvt6XjcVnmSiNu22hpPaXnta3KbZjnCysev9k7QmWHUfwrqmX+72JPok9j+TH4N4stY/bqltsK8768/b0+s6T50zz1mf3lZhH+j1pPZf3k6JoL2RhXo78j412zRtpfvhhzB2e6J1ufsnaD+cABf3f739lzpGcZup9vK+uOuO2hTHXLf7J8nb0nX0Pg/rmuMQHU+pTw53nITHsLlccX2Lx7iROgfN63YZWyfijPu8Tmvf+NuT9WnhMjXSHGtZn+x7zXrhOA3/v6jrrrNTdr9F21wItkWSj4V6yscF+p5zfuhjrceGOeb6dTvOm6+F10urnfGkxWPKnvdCXV/5uMbwIDAEAAAAAKAPfOrBZ8XAr05oqOngMPXdiG/8wmZ12+P7xeX6mjexrCfjEhPjTfKE3UypnPQv2ElHr19uICDIJw39UMMTtWnDg7BuNIEehg7FhGYw2dj1/sVMSFCs16zPP76mX27btk/hhKrY/0zefjxm/ONWMRkb1Fu0sDWB7IUuwjjQ64kmf802VEzsJtor+tBsM2zLLmfCG9vH8Lj7x0M4p8xxK14Lzidx/9fbf/4+d0Rt2vaiunlf3HVHx10cc93un6Bsn2X8gC0nrS/fHrdf4Tkt7Bvbv2I5b9vt/kgxde2YcfsRh3d2vfY1d3v0v/W+iZfxx5b3fjhuw/cz3r4Q+Me4xbQTjunw/WB7C2ad3jbk8jYrzlkMFve8ao6X/DzwzxvntWDMd4+7jlx4vuTnOmMUOQJDAAAAAAD6xFc2PicGfjv2HRXrS1Lfjah98I6d6vnDx8Xl+l+dybh4sn4mJUOGkJ249/plJyTL+yoEBIWozTBcsKL1xG3mk/PBZGPX+xfK++sFMWaZ4hjnbXvv2z6F4Y3Y/0wqPPCPm90GISjw6L7pZUwf83U1w4fivWAZvZ4oaDLbUDGxm2gv2idhW8nltHxZ/3jI51Sr38H74v6vt/9Sxyhu07YXbUc8XqI2zbEJt7Hb/QsJ7dtlin6YtoP1m9fcbRT7Hp7TqX3j1HX7atqsuGYKYyYKIzRnrLnvjyyMX8tfD7fZOX5OW8X71csX8n0gX1fK9k+uec5G7+X9i9oNjiWGjHd+OGOveN0by3oMpc639LgVz7cKnSyD4UFgCAAAAABAH3lo9FAU9L164RqxbkrquxG111/1qFr2yF5xuf7WmhCvMluTu9Gkf4oYBtjJ7YpJP7MOIcjIX3fbTLQXrTueVJfX0e3++cyEp7Ccfj0PPJyAoXjfTt6H4U2qD/m2hxO48fan+tLihAmmzaBuMXnsvpbR/cr7ateZtdGJ1vbm7TT/PwxepH40+5sv6x+PsgluLXg/sf+r919RJ15X/rrfpjme4XYI646Ou9nWeMx1u38es05hH+rXzbkjn0fhNorrt9vcWjYeu75wXcI5FBLGjOlLyXkvve+/lq+3GL++7DjUWKfZP2IfpHGcy/dh+pqjpdrNlw3HSL4ud/9J244B5o1V53poX289ijd7zZyvxTlsz8Vo/NfTHHPFNaANZeMfw4HAEAAAAACAPqPvAgyDvt+/4Qmxbpmyuw3/4Ovb1WPjh8Xl+lNVuKHlE9WzNWEmBhsSPbko9cu+7k3o6wlCt80oNMjY5cI24wnz1sR967U4dIiCl0I7/XNfS/SvKbU/PNKxtNsTTNgn+1/Ud/pW7CP/uMX18v1kx5vexmKdpu/BuvRr3rI53a/SsKZtQYBh9r203S2tgCNfNt6fJeeUad953x7reJsq9l+qTjF2wjajcWfHbFAvOu7JcdVG/9z2Uv0L3hffawqOmRVdO6K2iv5kmuPd7odiuWyZRV67+TLuuuJrQkbvJ3c8e/ulOhQzfQ/er1rGU2Od+bFNi46xPfZVfZD6XvsYZcZG1+XHoO62or+5Y9Wco/b6YF5foBaZa0jr+vTKhcvMv6Px6S4bKD13EsvJy+T9iK9/GDYEhgAAAAAA9KHxF+PQ8DMjY2LdMmV3G/7Ix9erK1c/Ky7Xf/RkeEm4YdSp0z3ShLLITmaLE3nFRHdBas+GCV6dRJv+RPsCNWKXbdULQofmMvJkZkf90xOZqW22dctDFjshKh1Lpz9FG6X9D/qml5GPmxPQGIlxZNYfrCvcR47Udubb57eTv1Y24RsEG2bbysa7W9+Z1Pakl4/6WHrs6uy/sE7WdqLNYl+02sqXdetFxz015owO+qfHSHKbbd2q4CjRJ2kMpra5tY743PWXkY9NWMfrc2rsJrcrPg6aWUfVvrDMtnt17XY62xXXKeT7wNufxTZUrd8eS/ma5I6HeD9r+XhrkfY1BoweW3YceGPced1fRo/l+NqSHs8V544Zm8HnTUZeRjg3MJQIDAEAAAAA6FP37DgQhXy3Pr5PrFvlzu0vqLdetyVqT3v70i3qjif2i8v1D3kirpgEbk7kipN4M0Oa9J81iSCilxXBhTTRHk7G9+y2mf0eTOAmJo/1Nvnb6oR2ZrJ3XI1FoZWzL6I28+XdNot9mtRsQ5pM9s8pqa0ZPwbJQK6H2XNPmuSX9mFPb5swdv0wwoZ5LmGs+8v44nPbPX9s+9myeb04HCmVCgEz4rkh9NGs192m8DOlKQynhc8jDJbi/DBjwjneiWt+Pi7cMVxc89PjuuzcqRMY+uO8zfMHA4nAEAAAAACAPvbZh8a8cO+nPrlBbdrT+aNEP7n6WXNnodtmQT+mdM3oIXE5tC+aaJ5NZmKyfwLDfFJzWCfYi0njNre/H8O0dvXbNvbZedfz9P50wxK7f+shHMFMcYLybHzqzy//GuX88UegWa8InlNhoFUaGCZ0sgyGB4EhAAAAAAB97k9v2eEFe2cv2ybWq2vLc0fUH970pNem6y9uf1ptf/6ouCz6BMEFBsEwhKIAAMwSAkMAAAAAAPrcwWOT6swvbfZCvW589+ANm59Xp1+9yWu3oO9CXHjPqHpyH8FhXyIwxCAgMAQAoGsIDAEAAAAAGAD3PuV/n+H3f3StWrtr+o8PPXK8oT567y71g4vWee0XXpOt589XPKUefOaguDwAAACA3kdgCAAAAADAgNB3/Llh3jv+bqtYrxP6exHLHlOqvXv5NvW3G59ToweOiW0AAAAA6E0EhgAAAAAADJC3XrfFC/E+dt9usV6nbt6yT/36lx7z1hH63o88pH5j6Ra16N5d6tGxw2I7AAAAAHoHgSEAAAAAAAMkfDTp9y1Yo+5/uvuPC/365ufVe772hLeulFM/84j64MqnTd/2HZkU2wMAAAAwdwgMAQAAAAAYMOGjSd923RaxXjc8Nn7YrO/1Vz3qrbPMT125Qf3OVx9XH77rGfW1Tc+rrc8dEdsGAAAAMDsIDAEAAAAAGEDho0mvXP2sWK+b7nhiv/qL259WP79ko7fuOl61cI0645pN6n/87VYTJs5bvk2dd8N29cffeFL92a07TLt/dedOEzLqgBIAgGHxW1/ZGvnsQ2NAT7nziRfEnw/RPwgMAQAAAAAYQOGjSX/8Ew+rp/YfFevOBL1+/RjSTsJDAAAA9Jfbt+0XfyZE/yAwBAAAAABgQP3lHTu9iZxLbntKrDfTNo69aO6Q+IOvb1f/9Qub1Y98fL3XLwAAAPQ3AsP+R2AIAAAAAMCAGj1wTP3UJzd4kzn37Dgg1p1tzx8+rtaMHlLLHtnbDBPffO1j6r98fpP6uU9vVD+6eL36/svWen0HAABAbyIw7H8EhgAAAAAADLBPP/isN5nz2199XKzXqyanptQLRydN+LnluSNq7a5D5nGnAAAMi0X37orcvGUf0FMe2HlQ/FkO/YPAEAAAAACAAXfmFzd7oeGXHx4X6wEAAAAYTgSGAAAAAAAMuK9vft4LDH/ps4+o/UcmxboAAAAAhg+BIQAAAAAAQ+A9X3vCCw3/5u5RsR4AAACA4UNgCAAAAADAEBgZPeQFhv/usrVqw7MvinUBAAAADBcCQwAAAAAAhsRf3rHTCw3/7NYdYj0AAAAAw4XAEAAAAACAITF64Jj6iU887IWGD+/mLkMAAABg2BEYAgAAAAAwRBbeM+oFhtxlCAAAAIDAEAAAAACAIfLswQnuMgQAAADgITAEAAAAAGDIcJchAAAAABeBIQAAAAAAQ4a7DAEAAAC4CAwBAAAAABhC3GUIAAAAoEBgCAAAAADAEOIuQwAAAAAFAkMAAAAAAIYUdxkCAAAA0AgMAQAAAAAYUtxlCAAAAEA7cHhCffe737WR3/QKgSEAAAAAAH0mvMvwT2/hLkMAAABg2Bw6clx9+zsv28hveoXAEAAAAACAPiPdZbhm9JBYFwAAAMBgOjIxqY43TtrIb3qFwBAAAAAAgD502bd2eYHhH3/jSbEeAAAAgME02ZhSBw8ft5Hf9AqBIQAAAAAAfWj8xePqtVdu8ELDB3YeFOsCAAAAGEyHj3XnLkMCQwAAAAAA+tTH79/tBYbv+/p2sR4AAACAwTQ1dcLcZXjipe/Y6K+zQmAIAAAAAECf2n9kUv3cko1eaHjPjgNiXQAAAACDST+a9MDhCTV18ts2/mu/EBgCAAAAANDHrlz9rBcYvudrT4j1AAAAAAwuHRoeOnJcHZmYUt/+zss2BqxfCAwBAAAAAOhjL0401C999hEvNLxz+wtiXQAAAACD7djxhgkOtWPHp8z3G9ZBYAgAAPD/t3d3P35UZQDH/wDSf8DEpGm88k40Eu+UO0mIiRdaSIwkmsiNURMvDPHCtKFSiUYKGMGkQe0iRCRIDOALIK7SIi1NS2lpacFlS0l5KdCCXo5zXmbOy/Ocmfltd7u/38z34pN0Z86c1+ccyHPYAgDAgrvznyvJheFXl46p5QAAAABMg/mNw4uXPqrev2h82IsLQwAAAAAAFtzFD/9bfe4Xh5JLw0defFMtCwAAAAA5LgwBAAAAABiBXz77enJheN3eI2o5AAAAAMhxYQgAAAAAwEhce+/h5NLQXCJq5QAAAAAgxoUhAAAAAAAj8cAL55ILw6v3HKzOXbiklgUAAACABheGAAAAAACMyA33H0suDX/0lzNqOQAAAABocGEIAAAAAMCIPHXq7eTC8GO3Plu98PoFtSwAAAAAGFwYAgAAAAAwMt/548nk0vDmh19WywEAAACAwYUhAAAAAAAj89K596utuw8kl4aPHT+vlgWwaFarfTduq7YvrSrvAADjwpkP48rEAReGAAAAAACM0K4nX00uDK+/76habi4t76i23LivWtHerdn+atdV26pdy9q7OXdmX7W97vtGJ4mWd26rtly1o1qOnytrsbJ00wasz0bpSLDZeb2p2ncme54wcSPLDJsD03Y2n1l/bD0790fvh7Hf5Wul6K1/0BxgbJZ3Dl1zF69b6vNny0bGiT/jSnvKnU3l9w5nfJ8NO+Ob9TOGnmem3Q1ZL8789T3zTf8L5Tfk39U2iI23/vkLphsHXBgCAAAAADBC73zwUXXNXYeSS8O7/7Wilp03K2f228RKnqBuk8a5AQmrYUmeObWZyWTl+Uxz6fu+aUl8276eXBuWsNOShnoiUSPmKkvSDeuDxiUf++Z1pW7PXKIUE4xZfzARefLc71PtfNVizMatUrZbHGcufsO77r4MOT9mOpfmjR/zQp7x/qJ25nNsoy4M7Vzq592w83bqZ74cazEetAtDH8vx/u2ijsfHxiy65sX2387Haj0/5tmQuZxuHHBhCAAAAADASO19bjW5MPzkz/5dnT7/gVp2HtkkZpRQMT+LhKqSsHLJoTSZNNRGJ2znWSmZbJg5bebGltOSh5qNSgr3yi8kGk2CrPQ+jwGZIHTz1CFJArp2krnTvon579cvjtM+JHqTxxgrG4tNrNo4KCSWFTMnu0WcdSS9B/SFM35tNuSMt+u1hjN+3f/ZwJlf6kOi98zXLsUK+1W7MEx0XLDZ9R9+5sxyWReYb7R5WK1Wll3cqnNkTTcOuDAEAAAAAGDEvrJ0LLk0/N6jp9Ry82+tCasZk58T5hJa/Qk8W27oZcEmXxim7UYJQNMvMYYoueaT4Gkyrv52qTvJqV6ktDHqkpdxn9TyJTMnWBV+Pfpc+fXCFRdfzMV/HmCmuDVEcrpwnrdlZ4tzzvhhNuSM92flzGfGuv+zgTNfNfOZLy/KQj1ZX9pxRs9iYt83onlPnncp9Ktk4LiteD2IAy4MAQAAAAAYs2dOv51cGBp/PnFeLTsf9KRQMSGcJHdKSa48idivTay2SZYoWZMnXrSkT5Z0Mokxkawt9M0mkuJyvq6QXHPJNjMfy7as+3M7N+vUP/fz7Fw/fR+zd26spf6H5+k6u2SbSC7mib3kO1dXOrdNbJUSj+6bpB3bRlM2/c6uU9ZXO2dDk4C1DU0aJn0vGFIG45fvJU0Up2ncuv3Z+Y2IM/18sHvPlp0hzgvnaJ/OMz6fD3EmyTLaGTruM17/vh1r3xxqc5ONS65pHjcyptJvOPOF3jJdc5U9N/3T9kbDx4BYx1nHZdi6ZvwmYtdJ7WthvBOOAy4MAQAAAAAYuVseP51cGF5/31G13Fw4sxoSpDaZEhKnxaRUiU9WheRihyxx0yZC83Z9QjMkwEwiKfvel4mTkC5BbOqMkj6irrhsVM6PQyST83aN9eyfyredtxu9S5Kv6hhL/S+ttRuDTOoqc9J+635O2/VJP/ObAjt3VLtEO/KbMC95Ys31KV87EzeuT9EY/behrn7JWD0RF33qvbTPx7FWnyszILGIUWnPtlobvzYOSrHlYjmOIRuL7d71+yqLoaSMiLN8r0VtdPYl48+BZjydsjOreMb7OsN4/V6Oy3HGh2e+7+kY6z4l81ruY/ud/TmNo+WluA65Dm5MzTfuveiHec+ZH5Ux65WPLebnrPg+sP1T48Rr9mc27/EZZHXV0TDxIdZPE6/DjKJ+TDkOuDAEAAAAAGDk3rhwqfr0noPJpeFtT72mlp0bvUmtPj5B2ZUw8WzyKktYuYSWnijKy6bJHJ8sKiQmk6SPSPw6Ijnkk25hHEpd1jr3T6Uny4rv1DGW2ir1zdUrxp+XSxLOrkzarqknrKlc9/yb+uedN7k4tP+/o9BfO6dK8jIkDZtnaZuXw62jmbcyNdbtvBTW9bL3GRZTFus2DuoY0ZLyzbvomY3Fdu/oMZ6UEXGm7LX6Zxu//rzT4tsI37hzwTxT4z4y/Ix3/Rhytsj975/Hc6Wef/mZXPNjFmec2Ld+zPN0xvu+6+UDMeZsbtx6lPvmvs/Xy/XHzZsbX9oP8z58w5lfE3sxN7z/tn9ZLCb8vtme/2ZiK14/92zImEvKcyHbl+sWm3YccGEIAAAAAMAE7H1uNbkwNH51oJQsmTcuqaQlSVpJ0iokoVwScgA1mZwlWrIEZ/rcJ15E4jcQdRbqc8mhqFwpmawmtdexfxpblylj5jgv6+Y9aV/tU6H/xedhPe3PpTH4564tX1f9cypOkLkyoZ6s/3Xfdy2bZ+4bsy7uXSiXJwnzn11ZPSk3K7s+SqLSycei8PMj50TTEwdYcC5e2lg3sVHH1vKZ/X7fNOuvx5U9o9ozU4/xpIyNPbn32vbjdmzZKP7aM6cpa7g9aMq7c2uAIWe83yNiH/nntr+lMjVRp3r+jeyMj+cmKRuENYpiIBuLm5O6TLZOTmE+muf2G/9n205Mxl2Ym2w8dZ8484f2v799u6bmXInPglgba9lzYcBYFS6m0rHYOfV9if+cmHgccGEIAAAAAMBE3HD/MXFpeHDlglp209kER5RsKSWWRLLSJU+an2USR9KSRvZZ3p5PcJbYNjuSp6JOX19e1iW5onK+zjAON8ZSMrlk5v4Jvl0/V00yMPQhJNPab9QxFvpffO7qbcfvx5CPr+HKpXEQ6skSeLZ/zbO4/+bPZi7kN3bcbbyk72W8Zd/39L2cFHR9U5Ob0XttXV2b2bgt903f/sAYZfvD7IMo9txZUI7Jrj2glhEx6Pd604ZnY9GWzc/J+FxK+y73nGTHk+0d9bwbcrb4MtpeE3Wq59/IznitvWwezTs35igGlLlx/fOSdvV4admyaVw4Smzadptn8XjMn83cyG+64t30OY2/7PtsLgRlf4V66vdZ3Obv0/F6ts1s3Jb7pnu/ZP0v6i9n19P2X1sb96xv71rRGZCuRYmfu3hum71jvj2z2j53cRn3zXw77TjgwhAAAAAAgIlYfedi9Zk707+adOvuA2rZzWYTM1kCJSSfmmfdSQ9DJnEkWa9/lidWk0RjgU8KaW2KOpWEqeESWFE5UadPnuYJpvXuX06p337T9ENLTqljLPS/+DxbZz8GNUHW0hKUph45P2YMru7ofd3GrvyZKa+MMV6vUFfzvv/7lpkrMfboXeeY3Rxp77W9ZCRrh4lJ94eMWx8f8b6LyMS5Kys0ZUTcZ/vC98e2le8DG/vlc0nre86OZcgZP+Rs8WW0NkWdhX07qjNezJnedzfm6NvC3ISycV99ndkaptKYdvI4c8yY3PxE7+txcOYb2pzVz7K5L7URZP2z4wmxF89h+l0uOhvqn+13XXGQxKOPGxNLyTdpnW05Mx7igAtDAAAAAACmZP+r7yQXhsYX7j2slt08eTInfd4kdUpJ0ZhNjJhkUZ8hyWSfmOlu05WRCS3/PK4zSWwFom0x1mgemjLWOvcv4dsU35nnPglmE1tZQkxNdpX6X0hklcYv+hJzZdJ2zRgLCbvi+/SZSxCaeZK2L7m/zrGzzTUlDf3aqO+8Yr3uWxETdl3itdbGjvGK90e+9j7eTHz4/ZvvtTRpr8dOUkbEZzne0rprIlZT63vGDzlb/PyIMtG8Nc/82TXqM16MUW/fjTn61sdWPjetrC139pbjII3phumLHmfl9+mz6Z352vizefdr7uagEIuiPV+XGZOImbL83wnE+eDZcvnz5X3Z+Py8GnWdy2f69lE+D/7bzNjigAtDAAAAAAAm5qEjb4pLwy//9kW17KboSqzUXOKxI1EVMWX7ymmJJteGTE42SaMkMWQSMNH3Wpmmz2mdPkEbP7PJnOyZT66FcZSSybP1L54XvX9BaT4SIhFVE303yv1vxi/GmtchytVMW22da0geq3HX801iQJt+PtxcK8ScNOPv6YPa91rHmiT9NH9Fmy07dKxYbCFW7Xlg4y7steQ89HtNnCHZmdkpj0/zs7b/fR/kXi+fPeZsSs8XyZ5fWX+LZ1rv2cIZn5RRzpO8rqY/XReGyzvTet038TN3AZLOiZmnpk43Z8m8cOZHZbN+Fs/8pv9+vsU+d89tbGVrGLgxaPuyjcPe88PPQzY/Ni6Ub029WntNf5v5Tsto69fI1rHTuOKAC0MAAAAAACbojuUVcWn4tQdeUsteaTahJJInUdLHJIui5IueJHLKSaRAK+OSWlmyxQvJz6g/PWVM/XqdaTLL1CUSpX6soY96Iq2xlv6ZBFJpzK5sX+Ks3Ke4LZeomqX/pl03R2IdfbKyldTXJNty5XG4drX16Ru7pyTumrG0CbpScs8w41HH0N++XTtlPu3zeP21BG+0lxw97jEebq+bPWV+M8bEV/eezOPWxrVyrhQN/V5LcmvPImYs633Gd58tTnpOufr1Okd+xvu+J2dKccxRG+Isyr5R1yYvE/eZM799HseDmOeaX7MwRzIW1T4076L6tdgpz6urd9dO+U1Caadh6xbjdvNWikFxPkTjN9+sqL9pON044MIQAAAAAICJuu2p18Sl4c0Pv6yWvXJckqdJ8DRJFz156LgkqCGTK+adSBaJxOLApNBlcv0sj2P+dCWtQjIumKexlRKIYSwhtoK0vPwmIZJtaay5+utvl105GYfdSolAfe6VPvr+xWMKeyUV+ubXXEnUYhxcDJh4Wftaa3unXxOj2t400rO/ZRPd3ec/Z/xaNfOkzc+8n/E5La4482c98+0YShdQ9XdyvrK4FxdTYS+m86HHXjuH2vxb2lzU1HkLkrXvKetMNw64MAQAAAAAYML2KL9p+K0/nFDL4vIkSbW555NHgxJrkMz8xYm8kDQdYtYEIzDUytKOJMFcSiSr4kuFWS4abQLb7wfzZ+VcKV1U9F0YzhPO+Ckb65nvL6k693td5sY67v1/hNCMpbmk6x5bmKd1nQN/cXnl53fx44ALQwAAAAAAJu6e/a+LS8OvP3i8OvvuJbU81maxkskAgFlwxgNYdFwYAgAAAAAA9TcNP3XH8/YyUSuP2ZFMBoDx4owHsOi4MAQAAAAAANbtf5f/T0PjS78+Wj1+/Lz6DQAAAIDFx4UhAAAAAABo3fq3V9VLQ+Pbj5ysXjr3vvodAAAAgMXFhSEAAAAAAEg8dvx89cW9R9RLw20/OVB9/0+nqidO8BuHAAAAwFhwYQgAAAAAAFQ/feY/1dbdB9SLQ+Oauw5VP3zidPXi2ffU7wEAAAAsBi4MAQAAAABA0ZGz71XffOiEemEYu/bew9Xup1+rfvP82eqvL79VHXvjverdix+pdQIAAACYL1wYAgAAAACAXg8ePld9/p7D6mVhl4//eH/12bsO2b/iFMD4XHP3IXXvb4br6v4AADAl2j8P14oLQwAAAAAAMNjTp96ufvDYK9XVew6qiQYAAAAAi4cLQwAAAAAAsCZPnnyr+u6jJ6tP3P6cmnQAAAAAsBi4MAQAAAAAAJfNXB7+7oU3qp//4z/VLY+/Un3j9yeq6+87av860q27D6hJCQAAAADzgQtDAAAAAAAAAAAAYMK4MAQAAAAAAAAAAAAmjAtDAAAAAAAAAAAAYMK4MAQAAAAAAAAAAAAmjAtDAAAAAAAAAAAAYMK4MAQAAAAAAAAAAAAmjAtDAAAAAAAAAAAAYMK4MAQAAAAAAAAAAAAmjAtDAAAAAAAAAAAAYMK4MAQAAAAAAAAAAAAm63/V/wEv+5nrkEZLPgAAAABJRU5ErkJggg==;" vertex="1" parent="1">
          <mxGeometry x="1920" y="92" width="968.18" height="278" as="geometry" />
        </mxCell>
        <mxCell id="Ox3Pp3CJMvX5oDVqFDjd-24" value="如果getBean传过来有值，就直接用传过来的作为使用参数&lt;br&gt;如果通过bd.addArgument传过来的，preparedConstructorArguments 有值，则进行解析，&lt;font color=&quot;#cccc00&quot;&gt;可以处理addIndexArgumentValue(1,new RuntimeBeanReference(&quot;beanName&quot;))，这样就可以用springBean注入&lt;/font&gt;&lt;br&gt;最终得到argsToUse" style="rounded=1;whiteSpace=wrap;html=1;fontColor=#000000;" vertex="1" parent="1">
          <mxGeometry x="1150" y="410" width="320" height="120" as="geometry" />
        </mxCell>
        <mxCell id="Ox3Pp3CJMvX5oDVqFDjd-27" value="" style="edgeStyle=orthogonalEdgeStyle;rounded=0;orthogonalLoop=1;jettySize=auto;html=1;fontColor=#000000;" edge="1" parent="1" source="Ox3Pp3CJMvX5oDVqFDjd-25" target="Ox3Pp3CJMvX5oDVqFDjd-26">
          <mxGeometry relative="1" as="geometry" />
        </mxCell>
        <mxCell id="Ox3Pp3CJMvX5oDVqFDjd-25" value="&lt;font color=&quot;#000000&quot;&gt;如果已经选择了就用选择的，否则就是所有构造方法&lt;/font&gt;" style="rounded=1;whiteSpace=wrap;html=1;fontColor=#CCCC00;" vertex="1" parent="1">
          <mxGeometry x="1590" y="410" width="250" height="60" as="geometry" />
        </mxCell>
        <mxCell id="Ox3Pp3CJMvX5oDVqFDjd-29" value="" style="edgeStyle=orthogonalEdgeStyle;rounded=0;orthogonalLoop=1;jettySize=auto;html=1;fontColor=#000000;" edge="1" parent="1" source="Ox3Pp3CJMvX5oDVqFDjd-26" target="Ox3Pp3CJMvX5oDVqFDjd-28">
          <mxGeometry relative="1" as="geometry" />
        </mxCell>
        <mxCell id="Ox3Pp3CJMvX5oDVqFDjd-26" value="&lt;font color=&quot;#000000&quot;&gt;如果构造方法只有一个，没有传参，没有手动设置bd参数值，如果是无参就直接创建&lt;/font&gt;" style="rounded=1;whiteSpace=wrap;html=1;fontColor=#CCCC00;" vertex="1" parent="1">
          <mxGeometry x="1590" y="510" width="250" height="60" as="geometry" />
        </mxCell>
        <mxCell id="Ox3Pp3CJMvX5oDVqFDjd-32" value="" style="edgeStyle=orthogonalEdgeStyle;rounded=0;orthogonalLoop=1;jettySize=auto;html=1;fontColor=#000000;" edge="1" parent="1" source="Ox3Pp3CJMvX5oDVqFDjd-28" target="Ox3Pp3CJMvX5oDVqFDjd-31">
          <mxGeometry relative="1" as="geometry" />
        </mxCell>
        <mxCell id="Ox3Pp3CJMvX5oDVqFDjd-28" value="&lt;font color=&quot;#000000&quot;&gt;确定所需要参数个数最小值，如果构造方法的参数个数小于最小值，则直接过滤，&lt;/font&gt;" style="rounded=1;whiteSpace=wrap;html=1;fontColor=#CCCC00;" vertex="1" parent="1">
          <mxGeometry x="1590" y="610" width="250" height="60" as="geometry" />
        </mxCell>
        <mxCell id="Ox3Pp3CJMvX5oDVqFDjd-30" value="通过bd设置参数的方式，可以指定参数下标，如果我只设置了参数下标1，赋值了一个参数，这样代表我实际需要两个&lt;br&gt;如果这样弄，需要将bean的AutowireMode设置为AUTOWIRE_CONSTRUCTOR&lt;br&gt;&lt;br&gt;resolveConstructorArguments" style="shape=note;whiteSpace=wrap;html=1;backgroundOutline=1;darkOpacity=0.05;fontColor=#000000;" vertex="1" parent="1">
          <mxGeometry x="1880" y="570" width="230" height="120" as="geometry" />
        </mxCell>
        <mxCell id="Ox3Pp3CJMvX5oDVqFDjd-34" value="" style="edgeStyle=orthogonalEdgeStyle;rounded=0;orthogonalLoop=1;jettySize=auto;html=1;fontColor=#000000;" edge="1" parent="1" source="Ox3Pp3CJMvX5oDVqFDjd-31" target="Ox3Pp3CJMvX5oDVqFDjd-33">
          <mxGeometry relative="1" as="geometry" />
        </mxCell>
        <mxCell id="Ox3Pp3CJMvX5oDVqFDjd-31" value="&lt;font color=&quot;#000000&quot;&gt;排序：public在前，参数越多，优先级越高&lt;br&gt;AutowireUtils.sortConstructors(candidates);&lt;/font&gt;" style="rounded=1;whiteSpace=wrap;html=1;fontColor=#CCCC00;" vertex="1" parent="1">
          <mxGeometry x="1590" y="710" width="250" height="60" as="geometry" />
        </mxCell>
        <mxCell id="Ox3Pp3CJMvX5oDVqFDjd-36" value="" style="edgeStyle=orthogonalEdgeStyle;rounded=0;orthogonalLoop=1;jettySize=auto;html=1;fontColor=#000000;" edge="1" parent="1" source="Ox3Pp3CJMvX5oDVqFDjd-33" target="Ox3Pp3CJMvX5oDVqFDjd-35">
          <mxGeometry relative="1" as="geometry" />
        </mxCell>
        <mxCell id="Ox3Pp3CJMvX5oDVqFDjd-33" value="&lt;font color=&quot;#000000&quot;&gt;遍历，找到实际参数值（先byType，再byName）&lt;br&gt;createArgumentArray&lt;br&gt;计算分值，参数个数相同情况处理&lt;/font&gt;" style="rounded=1;whiteSpace=wrap;html=1;fontColor=#CCCC00;" vertex="1" parent="1">
          <mxGeometry x="1590" y="810" width="250" height="60" as="geometry" />
        </mxCell>
        <mxCell id="Ox3Pp3CJMvX5oDVqFDjd-35" value="&lt;font color=&quot;#000000&quot;&gt;instantiate，实例化&lt;/font&gt;" style="rounded=1;whiteSpace=wrap;html=1;fontColor=#CCCC00;" vertex="1" parent="1">
          <mxGeometry x="1590" y="920" width="250" height="60" as="geometry" />
        </mxCell>
        <mxCell id="Ox3Pp3CJMvX5oDVqFDjd-37" value="这样排序，可以让下面进行遍历时，尽早结束循环" style="shape=note;whiteSpace=wrap;html=1;backgroundOutline=1;darkOpacity=0.05;fontColor=#000000;" vertex="1" parent="1">
          <mxGeometry x="1890" y="710" width="150" height="100" as="geometry" />
        </mxCell>
        <mxCell id="Ox3Pp3CJMvX5oDVqFDjd-41" value="&lt;div&gt;//1、推断出构造方法，需要赋值，指定@Autowire或者不指定&lt;/div&gt;&lt;div&gt;&lt;span style=&quot;&quot;&gt;		&lt;/span&gt;//2、AutowireMode是AUTOWIRE_CONSTRUCTOR&lt;/div&gt;&lt;div&gt;&lt;span style=&quot;&quot;&gt;		&lt;/span&gt;//3、bd指定了方法参数&lt;/div&gt;&lt;div&gt;&lt;span style=&quot;&quot;&gt;		&lt;/span&gt;//4、getBean时候传入了构造参数&lt;/div&gt;" style="shape=note;whiteSpace=wrap;html=1;backgroundOutline=1;darkOpacity=0.05;fontColor=#000000;" vertex="1" parent="1">
          <mxGeometry x="1610" y="260" width="330" height="100" as="geometry" />
        </mxCell>
      </root>
    </mxGraphModel>
  </diagram>
</mxfile>
